<?xml version="1.0" encoding="utf-8"?>
<!-- Generator: Adobe Illustrator 15.1.0, SVG Export Plug-In . SVG Version: 6.00 Build 0)  -->
<!DOCTYPE svg PUBLIC "-//W3C//DTD SVG 1.1//EN" "http://www.w3.org/Graphics/SVG/1.1/DTD/svg11.dtd">
<svg version="1.1" id="Layer_5" xmlns="http://www.w3.org/2000/svg" xmlns:xlink="http://www.w3.org/1999/xlink" x="0px" y="0px"
	 width="135px" height="135px" viewBox="0 0 135 135" enable-background="new 0 0 135 135" xml:space="preserve">
<path fill="#FFFFFF" d="M133.394,67.04c0.082-2.27-0.384-4.439-1.385-6.451c-0.016-0.83-0.124-1.665-0.327-2.479
	c-0.811-3.268-2.977-6.33-6.439-9.112c-0.251-0.366-0.536-0.737-0.855-1.13c-0.943-1.478-2.191-2.665-3.708-3.524
	c-1.761-1.359-3.817-2.632-6.117-3.786c-3.182-1.599-6.835-3.02-10.855-4.23c-0.787-0.483-1.658-0.729-2.597-0.739
	c-5.867-1.574-12.418-2.72-19.475-3.409c-0.444-0.045-0.89-0.082-1.33-0.122c-0.218-0.254-0.472-0.41-0.748-0.462
	c-0.227-0.042-0.583-0.033-0.981,0.255c-0.024,0.02-0.046,0.037-0.067,0.058c-0.577-0.044-1.115-0.083-1.634-0.118h-0.004
	c-5.657-0.417-11.373-0.469-16.992-0.156c-0.004,0-0.008,0-0.008,0c-1.313,0.064-2.641,0.151-3.953,0.251
	c-0.023-0.018-0.043-0.033-0.07-0.053c-0.601-0.411-1.251-0.329-1.75,0.206c-2.168,0.193-4.336,0.438-6.453,0.724
	c-5.242,0.712-10.09,1.657-14.405,2.813c-0.809,0.036-1.577,0.253-2.279,0.645c-6.242,1.856-11.479,4.233-15.561,7.067
	c-0.53,0.37-1.053,0.755-1.546,1.147c-1.573,0.932-2.887,2.256-3.805,3.837c-0.139,0.187-0.275,0.386-0.423,0.604
	C5.127,52.54,2.903,56.47,3.012,60.567c-0.975,1.947-1.453,4.047-1.414,6.246l0,0c0,0,0,0,0,0.004c0,0.002,0,0.006,0,0.012l0,0
	c-0.008,1.162,0.166,2.344,0.517,3.509l0,0c0.002,0,0.002,0.002,0.002,0.002c0,0.002,0.002,0.002,0.002,0.006l0,0
	c0.355,1.229,0.889,2.406,1.593,3.494c0.275,4.499,3.123,8.933,8.252,12.839c1.182,1.786,2.843,3.15,4.815,3.954
	c1.018,0.76,2.117,1.493,3.268,2.179c4.995,2.976,11.12,5.377,18.2,7.132l0,0c0,0,0,0,0.002,0c0.162,0.051,0.31,0.084,0.454,0.109
	c4.313,1.049,8.983,1.867,13.88,2.433c4.956,0.577,9.927,0.873,14.781,0.893c0.09,0.107,0.219,0.189,0.409,0.189
	c0.02,0,0.039-0.002,0.063-0.006c0.174-0.016,0.292-0.086,0.372-0.18c6.173-0.014,12.187-0.46,18.374-1.36
	c3.556-0.519,6.837-1.154,10.032-1.932c0.289-0.041,0.579-0.115,0.859-0.217c2.716-0.694,5.219-1.456,7.652-2.332
	c5.634-2.029,9.753-4.154,13.344-6.889c1.976-0.8,3.644-2.145,4.835-3.907c4.997-3.839,7.665-8.001,7.933-12.365
	C132.76,72.007,133.484,69.537,133.394,67.04z M123.748,83.07c-0.302,1.043-0.742,2.01-1.306,2.876
	c-0.538,0.407-1.121,0.826-1.786,1.271l0,0c-1.649,1.113-3.403,2.121-5.363,3.076c-2.053,1.002-4.313,1.94-6.914,2.874
	c-1.307,0.466-2.687,0.92-4.221,1.384c-0.975,0.295-1.976,0.577-2.993,0.847c0.438-1.34,0.702-2.944,0.792-4.79
	c0.312-0.078,0.624-0.154,0.936-0.236l0,0c1.229-0.319,2.493-0.679,3.866-1.1l-0.17-0.558l0.17,0.558
	c1.382-0.421,2.521-0.793,3.577-1.165c2.809-0.989,5.232-1.978,7.41-3.028l0,0c2.337-1.127,4.431-2.343,6.361-3.694
	C124.021,81.965,123.904,82.53,123.748,83.07L123.748,83.07z M17.148,90.021l-0.08,0.104l0.049-0.123
	C17.126,90.009,17.138,90.015,17.148,90.021z M20.008,90.831l0.253-0.522c-1.209-0.585-2.252-1.133-3.193-1.665
	c-0.955-0.541-1.913-1.138-2.842-1.77l-0.292,0.433l0,0l0.292-0.433c-0.519-0.352-0.979-0.679-1.396-0.992
	c-0.386-0.606-0.713-1.277-0.979-1.998l-0.546,0.202l0.546-0.202c-0.296-0.813-0.507-1.677-0.632-2.584
	c1.277,0.882,2.651,1.722,4.106,2.506c0.515,0.272,1.072,0.562,1.803,0.924c3.417,1.692,7.232,3.189,11.336,4.448
	c1.053,0.324,2.211,0.651,3.539,1.007l0,0c0.552,0.144,1.105,0.288,1.651,0.423c0.002,0.053,0.004,0.106,0.006,0.161l0,0
	c0.083,1.786,0.331,3.338,0.741,4.641c-1.154-0.301-2.294-0.624-3.406-0.96c-3.885-1.177-7.498-2.569-10.734-4.141L20.008,90.831z
	 M6.406,66.794c-1.261-1.82-1.995-3.677-2.188-5.515l-0.275,0.029l0,0l0.275-0.029c-0.014-0.137-0.025-0.281-0.033-0.442
	c0.854-1.612,2.082-3.079,3.591-4.279c0.324,1.961,1.104,3.677,2.453,5.382l0,0c0.207,0.264,0.442,0.54,0.721,0.853l0.433-0.386
	l-0.433,0.386c0.226,0.257,0.408,0.454,0.589,0.642c1.072,1.126,2.269,2.153,3.646,3.135c-0.033,0.037-0.07,0.073-0.103,0.108l0,0
	c-1.421,1.575-2.614,3.4-3.482,5.316c-0.158-0.119-0.318-0.237-0.47-0.356l-0.357,0.46l0.357-0.46
	C9.149,70.089,7.562,68.463,6.406,66.794z M120.028,45.312c1.354,1.05,2.512,2.153,3.441,3.276l0.45-0.371l-0.45,0.371
	c0.331,0.399,0.612,0.772,0.863,1.139l0.478-0.33l-0.478,0.33c1.061,1.552,1.685,3.131,1.866,4.706
	c-0.104-0.063-0.209-0.129-0.313-0.188l0,0c-0.54-0.31-1.088-0.584-1.628-0.819l-0.233,0.53l0.233-0.53
	c-1.162-0.511-2.378-0.885-3.626-1.126c-0.008-0.318-0.031-0.64-0.07-0.961l-0.577,0.076l0.577-0.078
	c-0.325-2.46-1.773-4.928-4.221-7.2C117.664,44.297,118.915,44.695,120.028,45.312z M121.11,64.381
	c-0.544,0.46-1.137,0.918-1.752,1.36c-1.521-1.47-3.248-2.677-5.054-3.522c1.854-1.339,3.318-2.753,4.367-4.205l-0.47-0.337
	l0.47,0.337c1.063-1.472,1.696-2.997,1.895-4.541c1.111,0.224,2.191,0.565,3.227,1.018l0,0c0.503,0.217,1.012,0.476,1.515,0.764
	l0.289-0.507l-0.289,0.507c0.32,0.184,0.632,0.378,0.932,0.581c-0.002,0.102-0.009,0.201-0.015,0.296l0,0
	c-0.172,1.838-0.972,3.673-2.379,5.458C123.096,62.542,122.178,63.482,121.11,64.381L121.11,64.381z M111.458,78.534l0.163,0.446
	l0,0L111.458,78.534l-0.07,0.029l0,0c-0.873,0.323-1.653,0.603-2.377,0.848c-2.534,0.865-5.145,1.618-7.965,2.313
	c-0.534-2.234-1.285-4.408-2.186-6.34c0.161-0.039,0.327-0.076,0.489-0.115l-0.139-0.567l0.139,0.567
	c1.72-0.419,3.479-0.906,5.229-1.444l-0.172-0.558l0.172,0.554l0.119-0.035c0.396-0.121,0.787-0.244,1.181-0.37l0,0
	c0.035-0.012,0.072-0.023,0.107-0.033c0.049-0.014,0.096-0.029,0.141-0.045c0.957-0.314,1.943-0.659,2.938-1.025
	c1.428-0.53,2.702-1.049,3.892-1.587l-0.238-0.53l0.238,0.53c0.164-0.078,0.325-0.152,0.487-0.23l0.215-0.102l0,0
	c2.035-0.959,3.852-1.988,5.556-3.135c0.214,0.23,0.433,0.476,0.651,0.737l0.446-0.374l-0.446,0.374
	c1.228,1.452,2.218,3.053,2.957,4.763c-1.538,1.082-3.176,2.07-5,3.008C115.918,76.74,113.836,77.648,111.458,78.534z
	 M100.818,89.688c-3.614,0.876-7.355,1.589-11.416,2.174c-0.242,0.033-0.483,0.068-0.728,0.096l-0.392,0.055
	c-6.651,0.904-13.396,1.364-20.047,1.374c-0.002-0.783-0.002-1.571-0.006-2.36v-0.55h-0.583h0.583l-0.002-0.667
	c-0.002-1.063-0.004-2.125-0.004-3.189c5.808-0.006,11.684-0.351,17.47-1.027c1.28-0.149,2.401-0.29,3.427-0.435
	c3.915-0.546,7.533-1.213,11.044-2.031c0.018,0.102,0.043,0.207,0.061,0.308l0.573-0.106l-0.573,0.106
	C100.648,85.591,100.847,87.741,100.818,89.688z M34.196,81.632L34.196,81.632c-3.731-0.918-7.254-2.01-10.467-3.242l-0.209,0.542
	l0.209-0.542c-0.043-0.02-0.086-0.033-0.129-0.051c-0.039-0.012-0.078-0.027-0.115-0.043l0,0c-2.18-0.846-4.258-1.777-6.182-2.762
	c-0.043-0.025-0.084-0.045-0.126-0.07c-0.043-0.023-0.086-0.045-0.125-0.068l0,0c-1.618-0.843-3.123-1.751-4.486-2.702
	c0.825-1.883,1.985-3.685,3.38-5.232l-0.431-0.392l0.431,0.392c0.068-0.074,0.135-0.148,0.203-0.223
	c1.255,0.827,2.649,1.618,4.349,2.465c0.158,0.079,0.32,0.155,0.481,0.233c0.096,0.043,0.193,0.09,0.289,0.137
	c0.618,0.298,1.246,0.585,1.87,0.859c0.885,0.393,1.782,0.763,2.665,1.105l0,0c1.027,0.397,2.096,0.782,3.179,1.146l0.186-0.55
	l-0.186,0.55l0.156,0.053c0.417,0.141,0.846,0.282,1.277,0.417c1.601,0.505,3.281,0.973,5.129,1.433l0,0
	c0.406,0.105,0.807,0.199,1.205,0.293c-0.016,0.035-0.031,0.063-0.045,0.098l0.528,0.239l-0.528-0.239
	c-0.881,1.93-1.591,4.031-2.119,6.246C34.454,81.696,34.325,81.665,34.196,81.632z M11.816,62.02L11.816,62.02
	c-0.261-0.296-0.483-0.558-0.676-0.803l-0.455,0.362l0.455-0.362c-1.266-1.599-1.954-3.127-2.236-4.959
	c-0.023-0.148-0.041-0.308-0.059-0.484c0.18-0.121,0.353-0.23,0.522-0.333l0,0c0.23-0.141,0.441-0.263,0.647-0.375l-0.279-0.513
	l0.279,0.513c1.416-0.77,2.932-1.32,4.519-1.632c0.248,1.425,0.867,2.843,1.844,4.229c1.119,1.589,2.686,3.107,4.667,4.526
	c-1.801,0.848-3.525,2.057-5.045,3.536c-1.375-0.971-2.562-1.982-3.622-3.094C12.21,62.452,12.038,62.266,11.816,62.02z
	 M8.428,55.752L8.428,55.752L8.428,55.752L8.428,55.752L8.428,55.752z M8.818,54.536l0.246,0.408L8.818,54.536L8.818,54.536z
	 M8.241,55.481L8.241,55.481L8.241,55.481L8.241,55.481z M15.614,51.157L15.614,51.157c0.288-2.446,1.852-4.84,4.642-7.121
	c0.817,0.032,1.651,0.144,2.481,0.341c0.897,0.213,1.788,0.522,2.663,0.92c-0.44,0.401-0.842,0.804-1.193,1.202l0.437,0.384
	L24.207,46.5c-1.687,1.913-2.519,3.918-2.484,5.967c-1.696-0.421-3.427-0.581-5.162-0.472c-0.324,0.02-0.653,0.051-0.99,0.094
	C15.565,51.773,15.579,51.461,15.614,51.157z M54.42,33.218c0.292-0.029,0.587-0.055,0.881-0.078
	c0.072-0.008,0.146-0.014,0.218-0.018c0.191,0.233,0.328,0.518,0.487,0.839c0.164,0.333,0.312,0.691,0.464,1.099
	c-1.08,0.096-2.134,0.206-3.143,0.324l0.068,0.578l-0.068-0.578c-5.174,0.615-9.911,1.571-14.087,2.839
	c-0.292-0.273-0.554-0.502-0.815-0.705c-0.02-0.014-0.037-0.028-0.058-0.042l-0.021-0.016L37.99,37.92l0.357-0.459
	c-0.556-0.429-1.133-0.793-1.716-1.081c4.092-1.132,8.697-2.036,13.715-2.696C51.623,33.518,52.954,33.363,54.42,33.218
	L54.42,33.218z M57.249,35.391L57.249,35.391L57.249,35.391L57.249,35.391L57.249,35.391z M97.916,36.416
	c-0.579,0.293-1.148,0.659-1.696,1.092l0,0l-0.025,0.02c-0.023,0.016-0.043,0.031-0.064,0.047c-0.252,0.202-0.505,0.426-0.786,0.691
	c-4.145-1.25-8.827-2.207-13.927-2.847c-0.096-0.612-0.214-1.181-0.364-1.734c-0.033-0.129-0.072-0.25-0.109-0.367
	C87.14,33.965,92.838,35.005,97.916,36.416z M106.434,44.494c0.303,0.207,0.591,0.413,0.864,0.619
	c-0.199,0.12-0.398,0.243-0.593,0.371l0.319,0.488l-0.319-0.488c-0.053,0.035-0.109,0.075-0.16,0.113
	c-0.033,0.024-0.068,0.048-0.1,0.07l0.326,0.48l-0.328-0.479c-1.321,0.901-2.522,1.977-3.575,3.209
	c-1.035-0.831-2.24-1.616-3.591-2.343c-1.93-1.035-4.143-1.969-6.577-2.774c0.155-0.291,0.323-0.588,0.507-0.905l0,0
	c0.738-1.252,1.567-2.351,2.46-3.271c2.846,0.894,5.428,1.93,7.675,3.084C104.448,43.233,105.489,43.849,106.434,44.494
	L106.434,44.494z M114.488,44.065c2.887,2.339,4.589,4.905,4.921,7.424l0,0c0.03,0.207,0.044,0.417,0.054,0.627
	c-0.343-0.042-0.682-0.074-1.014-0.093c-1.732-0.105-3.468,0.057-5.162,0.479c-0.051-1.98-0.908-3.93-2.554-5.81
	c-0.401-0.464-0.857-0.92-1.349-1.364c0.865-0.396,1.746-0.704,2.632-0.917C112.838,44.212,113.668,44.099,114.488,44.065z
	 M117.73,57.333c-1.082,1.501-2.661,2.964-4.694,4.355c-0.26-0.094-0.515-0.186-0.763-0.262l-0.174,0.554l0.174-0.554
	c-1.29-0.407-2.575-0.623-3.837-0.658c0.063-0.051,0.127-0.098,0.189-0.148l-0.362-0.456l0.364,0.456
	c2.227-1.771,3.673-3.671,4.305-5.649l-0.554-0.176l0.554,0.176c0.133-0.414,0.226-0.831,0.288-1.248
	c1.688-0.46,3.424-0.647,5.16-0.542c0.336,0.02,0.681,0.055,1.035,0.102C119.252,54.647,118.683,56.008,117.73,57.333L117.73,57.333
	z M112.478,69.66c-1.168,0.528-2.416,1.035-3.817,1.556c-0.98,0.362-1.955,0.705-2.895,1.014c-0.039,0.016-0.08,0.027-0.117,0.035
	c-0.043,0.016-0.09,0.031-0.129,0.043l0.18,0.55l-0.18-0.55c-0.39,0.124-0.775,0.245-1.164,0.364l-0.12,0.037l0,0
	c-1.728,0.532-3.465,1.014-5.161,1.427l0,0c-0.245,0.061-0.491,0.117-0.736,0.172C98.17,73.981,98,73.672,97.832,73.38l0,0
	c-0.398-0.698-0.815-1.346-1.238-1.931c-0.286-0.401-0.599-0.795-0.926-1.169l0,0c-0.09-0.105-0.18-0.207-0.273-0.307
	c0.907-0.214,1.806-0.442,2.687-0.683l0,0l0.068-0.018c0.256-0.069,0.509-0.14,0.763-0.21l0,0c0.943-0.27,1.73-0.503,2.476-0.741
	c0.284-0.09,0.571-0.187,0.854-0.28l0.195-0.064l-0.195-0.587l0.199,0.587l0.014-0.006l0,0l0.123-0.039l0,0l0.233-0.078
	l-0.187-0.552l0.187,0.552c0.109-0.035,0.219-0.076,0.328-0.113l0.171-0.061l-0.19-0.549l0.19,0.549
	c1.454-0.505,2.769-1.012,4.009-1.554l-0.23-0.532l0.23,0.532c2.158-0.938,4.076-1.965,5.859-3.137
	c1.849,0.771,3.631,1.944,5.197,3.426c-1.594,1.064-3.306,2.023-5.209,2.924l0.248,0.526l-0.248-0.526l-0.222,0.105
	C112.788,69.516,112.631,69.59,112.478,69.66L112.478,69.66z M100.833,82.466l-0.002-0.006l0,0L100.833,82.466L100.833,82.466z
	 M100.81,82.382L100.81,82.382v-0.004l0,0V82.382z M35.101,82.078L35.101,82.078L35.101,82.078L35.101,82.078L35.101,82.078z
	 M29.35,72.081L29.35,72.081c-1.068-0.354-2.121-0.736-3.129-1.131l-0.208,0.542l0.208-0.542c-0.868-0.335-1.749-0.701-2.618-1.082
	c-0.612-0.271-1.226-0.556-1.833-0.844c-0.1-0.047-0.199-0.098-0.3-0.143c-0.154-0.072-0.306-0.143-0.456-0.218
	c-1.567-0.786-2.866-1.515-4.034-2.27c1.552-1.472,3.314-2.649,5.141-3.416c0.02-0.007,0.035-0.015,0.054-0.022
	c1.084,0.703,2.26,1.374,3.498,1.99c0.573,0.288,1.203,0.585,1.922,0.906l0,0c1.236,0.556,2.573,1.094,3.973,1.601l0,0l0.05,0.02
	c0.152,0.057,0.308,0.111,0.462,0.166l0.193-0.548l-0.193,0.548l0.125,0.044c0.053,0.02,0.107,0.039,0.158,0.061l0.191-0.55
	l-0.187,0.55l0.039,0.014l0.378-1.1l-0.037-0.012l0,0c-0.049-0.018-0.096-0.034-0.144-0.052l-0.135-0.051l0,0
	c-0.152-0.053-0.304-0.107-0.454-0.162l-0.053-0.02l-0.199,0.546l0.199-0.546c-1.373-0.499-2.683-1.029-3.893-1.571l-0.238,0.53
	l0.238-0.53c-0.704-0.315-1.316-0.604-1.877-0.885c-0.916-0.456-1.79-0.939-2.62-1.445c1.714-0.519,3.435-0.678,5.045-0.472
	c0.792,0.507,1.646,0.994,2.542,1.455c0.183,0.091,0.367,0.181,0.55,0.271l0.226,0.109l0,0l0.102,0.047l0.132-0.279l0.123-0.243
	l0.047-0.102l0,0l-0.047,0.102l-0.253,0.522c0.454,0.218,0.922,0.437,1.39,0.646l0,0l0.085,0.036
	c0.251,0.111,0.503,0.223,0.758,0.328l0,0c0.061,0.023,0.115,0.047,0.178,0.072l0.123,0.049l0.064-0.152l0,0l-0.063,0.156
	l0.152,0.063c0.277,0.11,0.554,0.226,0.833,0.331l0.01-0.023v0.004l-0.008,0.023l0.043,0.016l0,0l0,0h0.004l0,0
	c0.031,0.012,0.061,0.023,0.09,0.035l0.059,0.02l0,0c2.199,0.838,4.601,1.583,7.158,2.222c-0.596,0.324-1.199,0.765-1.797,1.311
	c-1.275-0.286-2.54-0.601-3.759-0.936l0,0l-0.179-0.051c-0.269-0.072-0.534-0.146-0.803-0.223l-0.14,0.487l0.14-0.487
	c-1.216-0.351-2.414-0.73-3.554-1.127l-0.337,0.968l0.333-0.97l-0.025-0.01l-0.371,1.104l0.02,0.006l0,0
	c1.16,0.404,2.375,0.79,3.612,1.145l0,0c0.273,0.08,0.544,0.156,0.817,0.229l0.178,0.051l0.15-0.544L37.05,69.19
	c1.01,0.274,2.051,0.542,3.107,0.787c-0.123,0.137-0.244,0.275-0.363,0.415l0.448,0.375l-0.448-0.375
	c-0.3,0.363-0.591,0.741-0.86,1.123c-0.586,0.835-1.144,1.774-1.667,2.792c-0.476-0.111-0.956-0.227-1.441-0.348l-0.14,0.565
	l0.14-0.565c-1.827-0.454-3.481-0.92-5.064-1.415c-0.419-0.129-0.844-0.274-1.256-0.409L29.35,72.081z M25.08,47.27L25.08,47.27
	c0.408-0.464,0.893-0.936,1.433-1.404c0.273,0.15,0.536,0.304,0.788,0.464l0.312-0.492l-0.31,0.492l0.051,0.031
	c1.365,0.875,2.601,1.965,3.692,3.238c-0.69,0.642-1.275,1.302-1.739,1.975l0.478,0.332l-0.478-0.332
	c-0.292,0.417-0.544,0.858-0.756,1.311l0,0c-0.394,0.838-0.614,1.694-0.668,2.556c-1.066-0.836-2.256-1.538-3.55-2.096l-0.228,0.534
	l0.228-0.534c-0.472-0.203-0.951-0.382-1.429-0.538C22.764,50.929,23.495,49.067,25.08,47.27z M27.634,44.24l0.339,0.472
	c0.292-0.208,0.573-0.402,0.862-0.589c2.737-1.79,6.131-3.329,10.092-4.583c0.905,0.92,1.739,2.012,2.482,3.262l0,0
	c0.191,0.322,0.363,0.627,0.519,0.921c-3.189,1.067-5.959,2.359-8.249,3.849c-0.631,0.411-1.22,0.838-1.756,1.269
	c-1.16-1.359-2.481-2.521-3.942-3.456l-0.312,0.49l0.312-0.49l-0.055-0.034l0,0c-0.144-0.091-0.296-0.182-0.444-0.271
	c0.166-0.126,0.33-0.25,0.491-0.366L27.634,44.24z M53.465,36.539c1.082-0.129,2.218-0.244,3.384-0.345
	c0.039,0.13,0.078,0.255,0.113,0.379c0.362,1.263,0.668,2.576,0.936,4.006c-1.618,0.149-3.229,0.338-4.792,0.566
	c-3.657,0.534-7.038,1.279-10.055,2.213c-0.193-0.368-0.406-0.748-0.647-1.152l-0.499,0.297l0.499-0.297
	c-0.676-1.137-1.427-2.156-2.238-3.045C44.135,38,48.601,37.119,53.465,36.539L53.465,36.539z M75.923,41.672L75.923,41.672
	c0.604,0.054,1.094,0.1,1.536,0.146c0.986,0.107,2,0.232,3.016,0.376c-0.053,1.819-0.162,3.513-0.337,5.164l0.576,0.062
	l-0.576-0.062l-0.008,0.068c-0.016,0.129-0.029,0.261-0.043,0.39c-1.037-0.16-2.098-0.3-3.168-0.421
	c-0.47-0.054-1-0.105-1.622-0.164l-0.053,0.581l0.053-0.581c-4.901-0.442-10.357-0.456-15.442-0.043
	c-0.004-0.085-0.008-0.167-0.012-0.251l0,0c-0.115-1.816-0.31-3.597-0.585-5.306C64.758,41.196,70.65,41.211,75.923,41.672z
	 M81.565,36.61c4.685,0.6,9.005,1.472,12.862,2.596c-0.805,0.891-1.548,1.914-2.223,3.056l0.502,0.296l-0.502-0.296
	c-0.233,0.399-0.44,0.771-0.631,1.133c-2.991-0.918-6.32-1.659-9.909-2.204c0.002-0.047,0.002-0.091,0.004-0.138l-1.033-0.015
	l1.033,0.015C81.694,39.42,81.698,38.019,81.565,36.61z M107.095,46.63c0.041-0.031,0.082-0.058,0.123-0.087
	s0.084-0.061,0.123-0.086l0,0c0.308-0.201,0.617-0.388,0.928-0.562c0.589,0.505,1.127,1.029,1.591,1.562
	c1.546,1.767,2.308,3.574,2.267,5.381c-0.602,0.195-1.198,0.425-1.781,0.69l0.241,0.526l-0.241-0.526
	c-1.182,0.536-2.271,1.197-3.258,1.969c-0.105-1.068-0.472-2.137-1.102-3.186l0,0c-0.104-0.17-0.212-0.341-0.329-0.511l-0.479,0.329
	l0.479-0.329c-0.507-0.741-1.15-1.47-1.911-2.17C104.737,48.482,105.855,47.469,107.095,46.63L107.095,46.63z M111.825,54.62
	c-0.558,1.75-1.877,3.466-3.923,5.09l0,0c-0.507,0.403-1.063,0.805-1.641,1.187c-0.387,0.059-0.763,0.133-1.135,0.227
	c0.462-0.558,0.848-1.127,1.15-1.704c0.405-0.781,0.666-1.577,0.779-2.368c1.096-0.997,2.363-1.825,3.771-2.466l0,0
	c0.374-0.167,0.752-0.324,1.135-0.46C111.92,54.288,111.879,54.454,111.825,54.62L111.825,54.62z M113.034,62.542L113.034,62.542
	L113.034,62.542L113.034,62.542L113.034,62.542z M106.853,65.06c-1.214,0.527-2.499,1.025-3.926,1.521l0,0l-0.174,0.062
	c-0.104,0.035-0.212,0.074-0.317,0.109l-0.229,0.078l0.184,0.55l-0.184-0.55l-0.118,0.035l0.159,0.487l-0.167-0.485l-0.014,0.006
	l0,0l-0.193,0.064c-0.278,0.092-0.56,0.186-0.842,0.274c-0.733,0.234-1.51,0.468-2.438,0.733l0.168,0.595l-0.168-0.595
	c-0.251,0.07-0.499,0.137-0.752,0.207l-0.066,0.016l0.141,0.526l-0.141-0.526c-1.098,0.3-2.227,0.58-3.359,0.838
	c-0.61-0.542-1.222-0.979-1.824-1.299c2.306-0.572,4.466-1.231,6.444-1.965l0,0l0.127-0.045c0.057-0.021,0.115-0.041,0.174-0.064
	l-0.016-0.039c0.002,0,0.006,0,0.006-0.004l0.016,0.043l0.027-0.008l0,0l0,0h0.004l0,0c0.36-0.136,0.709-0.28,1.096-0.437
	l0.091-0.035l0,0c0.322-0.132,0.634-0.265,0.935-0.396l0,0c0.491-0.213,0.939-0.419,1.378-0.63l-0.255-0.524l0.257,0.524l0.031-0.02
	l0,0c0.021-0.008,0.043-0.02,0.064-0.031l0.033-0.016l0,0c1.36-0.658,2.562-1.331,3.669-2.045c1.653-0.21,3.37-0.049,5.111,0.479
	C110.273,63.432,108.649,64.275,106.853,65.06L106.853,65.06z M95.65,72.128c0.399,0.554,0.793,1.17,1.172,1.83l0.505-0.29
	l-0.505,0.29c0.114,0.197,0.229,0.406,0.343,0.62c-3.158,0.704-6.406,1.277-9.927,1.755c-0.757,0.104-1.579,0.209-2.519,0.313
	c-5.455,0.642-10.999,0.974-16.479,0.976l0.006-1.69l0,0c0.004-0.949,0.014-1.894,0.025-2.962
	c5.568-0.016,11.138-0.378,16.563-1.088c0.251-0.03,0.505-0.067,0.756-0.103l0.349-0.051c2.886-0.401,5.549-0.876,8.13-1.448
	c0.245,0.237,0.485,0.495,0.718,0.764l0.44-0.38l-0.44,0.38C95.092,71.391,95.382,71.76,95.65,72.128z M23.197,54.308l-0.554,0.177
	L23.197,54.308c-0.018-0.063-0.035-0.123-0.055-0.183c0.246,0.089,0.491,0.187,0.729,0.289l0,0c1.548,0.667,2.928,1.554,4.109,2.64
	c0.129,0.703,0.373,1.407,0.728,2.1c0.333,0.649,0.766,1.288,1.289,1.912c-0.314-0.078-0.636-0.141-0.959-0.19
	c-0.709-0.461-1.372-0.944-1.973-1.436l-0.371,0.448l0.371-0.448C25.061,57.799,23.762,56.072,23.197,54.308z M30.262,52.237
	c0.403-0.581,0.912-1.162,1.509-1.723c0.201,0.269,0.396,0.545,0.581,0.826c0.9,1.376,1.567,2.839,1.996,4.352
	c-0.468,0.452-0.893,0.916-1.25,1.386l0.462,0.353l-0.462-0.353c-0.501,0.653-0.891,1.319-1.158,1.979l0,0
	c-0.115,0.286-0.212,0.577-0.287,0.861c-0.312-0.593-0.667-1.163-1.068-1.707c-0.45-0.612-0.959-1.189-1.509-1.728
	c-0.123-1.041,0.053-2.086,0.53-3.107l-0.53-0.246l0.53,0.248C29.786,52.984,30.009,52.604,30.262,52.237L30.262,52.237z
	 M58.097,41.729c0.281,1.712,0.472,3.445,0.587,5.28l0.583-0.037l-0.583,0.037c0.006,0.092,0.01,0.187,0.014,0.281
	c-1.749,0.167-3.478,0.386-5.139,0.655l0.093,0.573l-0.093-0.573c-2.979,0.484-5.742,1.123-8.231,1.911
	c-0.098-0.472-0.208-0.953-0.337-1.438l-0.563,0.148l0.563-0.148c-0.372-1.392-0.85-2.735-1.425-4
	c2.92-0.891,6.18-1.606,9.708-2.124C54.849,42.067,56.471,41.878,58.097,41.729z M76.789,48.549
	c1.066,0.121,2.125,0.265,3.158,0.425c-0.207,1.513-0.464,2.948-0.794,4.367l0.567,0.132l-0.567-0.132
	c-0.044,0.197-0.093,0.394-0.146,0.593c-0.655-0.094-1.316-0.184-1.978-0.264c-0.55-0.064-1.14-0.126-1.813-0.187l0,0
	c-4.847-0.45-10.239-0.466-15.261-0.053c0.004-0.115,0.01-0.232,0.012-0.347c0.02-0.77,0.016-1.55,0.008-2.277
	c-0.008-0.792-0.027-1.602-0.064-2.456c5.028-0.41,10.43-0.398,15.28,0.039l0,0C75.806,48.443,76.329,48.498,76.789,48.549z
	 M81.295,47.48L81.295,47.48c0.172-1.638,0.283-3.32,0.338-5.116c3.409,0.525,6.575,1.226,9.432,2.093
	c-0.577,1.274-1.059,2.624-1.434,4.029l0,0c-0.124,0.476-0.235,0.948-0.335,1.412c-2.458-0.77-5.164-1.408-8.062-1.895
	c0.018-0.15,0.033-0.3,0.049-0.45L81.295,47.48z M102.37,51.477c0.205-0.318,0.421-0.628,0.647-0.932
	c0.671,0.622,1.235,1.264,1.681,1.913l0,0c0.104,0.15,0.202,0.302,0.29,0.454l0.501-0.296l-0.501,0.296
	c0.716,1.193,1.035,2.398,0.957,3.587c-0.628,0.601-1.193,1.247-1.681,1.932l0.473,0.338l-0.473-0.338
	c-0.38,0.524-0.713,1.076-1.008,1.644c-0.13-0.47-0.313-0.936-0.552-1.403l0,0c-0.233-0.464-0.526-0.932-0.865-1.381l0,0
	c-0.397-0.53-0.873-1.056-1.411-1.567C100.853,54.249,101.502,52.82,102.37,51.477L102.37,51.477z M59.005,58.949
	c0.008-0.02,0.016-0.035,0.023-0.055c5.493-0.485,11.424-0.481,16.75,0.023l0.055-0.579l-0.055,0.579
	c0.429,0.041,0.83,0.084,1.213,0.127c-0.004,0-0.008,0.004-0.012,0.008c-0.027,0.02-0.051,0.035-0.074,0.045l-0.02-0.002
	c-0.047-0.008-0.094-0.012-0.141-0.016l-0.059,0.579l0,0l0.059-0.579C70.745,58.495,64.924,58.448,59.005,58.949z M33.697,63.915
	L33.697,63.915L33.697,63.915L33.697,63.915L33.697,63.915z M32.789,62.164c-0.059-0.049-0.113-0.096-0.171-0.145
	c-0.072-0.846,0.06-1.691,0.397-2.522l-0.538-0.218l0.538,0.218c0.23-0.565,0.567-1.143,1.006-1.716l0,0
	c0.193-0.251,0.408-0.507,0.64-0.756c0,0.01,0.004,0.016,0.004,0.021l0,0c0.125,0.695,0.199,1.272,0.222,1.824
	c0.047,1.002-0.02,1.989-0.203,2.935l0.14,0.029v0.002l-0.14-0.027c-0.014,0.066-0.027,0.132-0.041,0.2
	c-0.294,0.279-0.563,0.556-0.805,0.833c-0.171-0.125-0.343-0.246-0.521-0.361l0,0C33.147,62.371,32.968,62.266,32.789,62.164z
	 M35.003,55.875L35.003,55.875L35.003,55.875L35.003,55.875z M53.746,49.093c1.618-0.263,3.302-0.474,5.008-0.64
	c0.033,0.823,0.056,1.601,0.062,2.365c0.006,0.716,0.01,1.486-0.006,2.238c-0.003,0.162-0.011,0.32-0.019,0.481
	c-1.357,0.131-2.714,0.298-4.042,0.497c-3.287,0.493-6.322,1.182-9.042,2.047c0.042-0.438,0.072-0.889,0.085-1.349l0,0
	c0.006-0.37,0.006-0.743-0.006-1.107c-0.025-0.836-0.111-1.712-0.251-2.612C48.008,50.222,50.763,49.574,53.746,49.093
	L53.746,49.093z M80.286,53.602c0.332-1.447,0.597-2.907,0.808-4.445c2.881,0.487,5.565,1.121,7.996,1.891
	c-0.14,0.891-0.229,1.758-0.261,2.581c-0.014,0.378-0.016,0.77-0.008,1.162l0.581-0.01l-0.581,0.01
	c0.008,0.452,0.035,0.895,0.076,1.326c-2.646-0.834-5.576-1.509-8.732-2.012C80.208,53.938,80.247,53.77,80.286,53.602
	L80.286,53.602z M99.875,58.895c0.031-0.509,0.094-1.051,0.214-1.707c0.008-0.045,0.016-0.088,0.027-0.135
	c0.293,0.31,0.565,0.624,0.8,0.936l0.464-0.349l-0.464,0.349c0.296,0.397,0.552,0.803,0.76,1.213l0.519-0.266l-0.519,0.266
	c0.515,1.01,0.728,2.035,0.647,3.049c-0.008,0.004-0.012,0.008-0.018,0.014c-0.237,0.139-0.478,0.29-0.723,0.458l0.333,0.479
	l-0.333-0.478c-0.168,0.119-0.33,0.236-0.481,0.353c-0.307-0.354-0.642-0.701-0.997-1.037c-0.031-0.144-0.058-0.278-0.081-0.409l0,0
	C99.875,60.753,99.824,59.833,99.875,58.895z M101.223,64.135L101.223,64.135v-0.004l0,0V64.135z M78.841,58.1l-0.462-0.205
	L78.841,58.1L78.841,58.1z M79.796,55.54c0.031-0.101,0.053-0.203,0.078-0.302c3.355,0.528,6.439,1.253,9.191,2.158
	c0.168,0.941,0.422,1.812,0.761,2.585l0.532-0.229l-0.532,0.229c0.074,0.17,0.154,0.336,0.234,0.495
	c-3.346-1.029-7.081-1.82-11.142-2.366C79.237,57.384,79.508,56.592,79.796,55.54z M98.943,62.182L98.943,62.182l-0.184,0.217
	c0.098,0.083,0.193,0.167,0.288,0.251c0.121,0.511,0.277,1.014,0.465,1.501c-0.141,0.082-0.279,0.16-0.42,0.242
	c-0.91-0.55-1.9-1.08-2.957-1.581l0,0c-1.368-0.651-2.831-1.244-4.348-1.771c-0.343-0.438-0.646-0.947-0.895-1.524l0,0
	c-0.223-0.513-0.403-1.08-0.548-1.683c2.156,0.782,4.098,1.687,5.782,2.692c0.975,0.585,1.861,1.213,2.632,1.872L98.943,62.182z
	 M78.679,55.232c-0.278,1.004-0.534,1.752-0.832,2.429l0,0c-0.014,0.031-0.025,0.063-0.041,0.093
	c-0.008,0.027-0.02,0.055-0.031,0.082c-0.02,0.041-0.039,0.082-0.057,0.121c-0.562-0.07-1.164-0.133-1.83-0.195l0,0
	c-5.236-0.497-11.054-0.519-16.481-0.067c0.246-0.954,0.41-1.967,0.495-3.094c4.997-0.421,10.379-0.409,15.21,0.035l0.055-0.579
	l-0.055,0.579c0.661,0.063,1.244,0.125,1.782,0.187c0.61,0.072,1.22,0.154,1.824,0.242C78.707,55.119,78.691,55.173,78.679,55.232z
	 M35.639,62.262L35.639,62.262L35.639,62.262L35.639,62.262L35.639,62.262z M35.218,61.913L35.218,61.913L35.218,61.913h-0.002
	H35.218z M35.697,62.608c0.027-0.023,0.053-0.047,0.078-0.07l0.02-0.016c0.012-0.012,0.029-0.027,0.043-0.039l-0.083-0.093l0,0
	l0.083,0.093c0.534-0.472,1.135-0.936,1.786-1.376c1.86-1.264,4.086-2.37,6.625-3.303c-0.144,0.593-0.328,1.143-0.548,1.647
	l0.53,0.234l-0.53-0.234c-0.255,0.581-0.565,1.094-0.916,1.538c-1.55,0.542-3.032,1.15-4.4,1.817l0,0
	c-0.887,0.431-1.745,0.895-2.556,1.384c-0.177-0.1-0.349-0.2-0.517-0.298C35.463,63.477,35.592,63.045,35.697,62.608z
	 M44.522,60.419c0.084-0.161,0.162-0.329,0.24-0.497l0,0c0.337-0.77,0.595-1.63,0.768-2.563c2.792-0.926,5.95-1.659,9.393-2.177
	c1.25-0.188,2.527-0.343,3.804-0.472c-0.088,1.008-0.24,1.92-0.462,2.772l0,0c-0.016,0.051-0.027,0.104-0.039,0.156
	c-0.016,0.055-0.031,0.11-0.045,0.167c-0.624,0.063-1.269,0.133-1.967,0.215C51.94,58.534,48.02,59.341,44.522,60.419z
	 M59.153,57.716l-0.354-0.094L59.153,57.716L59.153,57.716z M44.419,51.381c0.113,0.786,0.185,1.548,0.207,2.277
	c0.012,0.343,0.012,0.696,0.004,1.047l0.581,0.011l-0.581-0.011c-0.014,0.614-0.063,1.208-0.137,1.776
	c-2.897,1.012-5.427,2.244-7.525,3.667c-0.335,0.226-0.659,0.462-0.971,0.7c0.07-0.667,0.085-1.348,0.054-2.03
	c-0.027-0.602-0.105-1.231-0.242-1.98l-0.573,0.105l0.573-0.105c-0.05-0.265-0.101-0.515-0.156-0.756
	c0.544-0.472,1.146-0.932,1.801-1.363C39.399,53.434,41.739,52.315,44.419,51.381z M56.35,59.176c0.435-0.053,0.852-0.1,1.255-0.143
	c-0.02,0.02-0.037,0.035-0.055,0.047l-0.037,0.004c-0.055,0.004-0.111,0.008-0.166,0.016l0,0c-1.037,0.102-1.984,0.21-2.874,0.323
	C55.091,59.333,55.714,59.252,56.35,59.176z M76.951,59.688L76.951,59.688L76.951,59.688L76.951,59.688L76.951,59.688z
	 M78.37,59.209c0.63,0.082,1.246,0.169,1.855,0.261c-0.282-0.037-0.571-0.074-0.857-0.111c-0.337-0.041-0.681-0.079-1.02-0.114
	C78.356,59.236,78.364,59.225,78.37,59.209z M92.731,62.624L92.731,62.624l-0.034,0.057L92.731,62.624z M102.588,63.451l0.063,0.134
	l-0.066-0.134C102.588,63.451,102.588,63.451,102.588,63.451z M102.681,63.395l0.072,0.14L102.681,63.395L102.681,63.395z
	 M99.514,57.084l-0.571-0.102c-0.129,0.706-0.201,1.292-0.23,1.85c-0.037,0.7-0.023,1.396,0.041,2.07
	c-0.626-0.478-1.305-0.938-2.033-1.374c-1.906-1.141-4.133-2.152-6.611-3.006c-0.071-0.562-0.114-1.148-0.126-1.755l0,0
	c-0.008-0.37-0.004-0.741,0.008-1.096c0.027-0.721,0.101-1.478,0.216-2.257c2.199,0.756,4.182,1.634,5.897,2.608
	c1.143,0.651,2.156,1.353,3.018,2.092c-0.066,0.281-0.128,0.568-0.183,0.864L99.514,57.084z M42.45,44.772
	c0.575,1.242,1.049,2.566,1.417,3.946l0,0c0.134,0.505,0.251,1.008,0.351,1.5c-2.844,0.98-5.335,2.167-7.404,3.528
	c-0.536,0.355-1.04,0.725-1.507,1.105c-0.46-1.44-1.123-2.833-1.984-4.146c-0.214-0.328-0.438-0.647-0.675-0.959
	c0.507-0.406,1.061-0.811,1.661-1.201C36.555,47.083,39.29,45.815,42.45,44.772z M32.243,63.191L32.243,63.191l-0.053,0.107
	L32.243,63.191z M32.338,63.244c0,0.002,0,0.002,0.002,0.002l-0.129,0.259L32.338,63.244z M33.001,62.972l-0.033,0.054l0,0
	L33.001,62.972z M35.705,65.026l-0.031,0.087l-0.004,0.004L35.705,65.026L35.705,65.026z M35.604,65.283l0.006-0.008l-0.008,0.018
	L35.6,65.299L35.604,65.283z M39.674,63.942c0.875-0.057,1.692-0.318,2.437-0.782c3.474-1.043,7.342-1.863,11.498-2.446
	c1.15-0.164,2.398-0.313,3.813-0.454c0.029,0.002,0.059,0.006,0.086,0.006c0.097,0,0.195-0.016,0.29-0.041
	c6.291-0.614,12.443-0.61,18.799,0.006c0.09,0.025,0.184,0.041,0.277,0.041c0.02,0,0.039-0.004,0.063-0.004l0.112,0.012
	c0.71,0.071,1.451,0.146,2.176,0.233c4.796,0.591,9.249,1.499,13.237,2.702c0.7,0.431,1.474,0.683,2.305,0.739
	c0.955,0.329,1.895,0.688,2.816,1.074c-2.213,0.764-4.64,1.438-7.234,2.008c-0.71-0.035-1.399,0.107-2.053,0.425
	c-2.006,0.39-4.139,0.729-6.332,1.01C77.385,69.06,72.691,69.348,68,69.361c-0.102-0.049-0.211-0.068-0.313-0.057
	c-0.02,0.004-0.097,0.014-0.187,0.057c-3.737-0.014-7.494-0.204-11.165-0.577c-3.252-0.331-6.367-0.785-9.258-1.354
	c-0.616-0.304-1.271-0.437-1.945-0.405c-2.784-0.616-5.396-1.357-7.787-2.207C38.111,64.51,38.887,64.215,39.674,63.942z
	 M67.715,71.253l0.581,0.01C68.3,71.157,68.3,71.056,68.3,70.95c0-0.117,0.002-0.231,0.004-0.349l0.004-0.041
	c0-0.012,0-0.023,0-0.035c4.634-0.016,9.275-0.315,13.805-0.895c2.243-0.291,4.423-0.638,6.474-1.035
	c0.583-0.113,1.189-0.238,1.847-0.383c0.403,0.039,0.824,0.152,1.253,0.344l0,0c0.422,0.187,0.851,0.444,1.287,0.768
	c-2.289,0.487-4.651,0.897-7.189,1.254l-0.354,0.051c-0.247,0.033-0.495,0.068-0.742,0.1c-5.373,0.705-10.886,1.07-16.397,1.076
	c0.002-0.18,0.004-0.359,0.01-0.542L67.715,71.253z M67.766,69.946v-0.002l0,0V69.946z M91.999,67.851L91.999,67.851l-0.078,0.172
	L91.999,67.851z M45.047,68.198c0.577,0.128,1.158,0.251,1.737,0.364c2.946,0.579,6.12,1.047,9.434,1.382
	c3.595,0.364,7.268,0.556,10.927,0.579c0,0.002,0,0.006-0.002,0.008v0.045c0,0.119-0.002,0.241-0.002,0.362
	c-0.002,0.098-0.002,0.203-0.006,0.303l0,0c-0.004,0.185-0.004,0.376-0.008,0.563c-4.098-0.023-8.211-0.234-12.227-0.632
	c-1.825-0.178-3.626-0.392-5.361-0.638l-0.08,0.577l0.08-0.577c-2.392-0.333-4.737-0.747-6.987-1.217
	c0.417-0.319,0.83-0.577,1.232-0.762C44.218,68.355,44.642,68.236,45.047,68.198z M40.686,71.142
	c0.255-0.309,0.521-0.597,0.786-0.863c2.53,0.555,5.189,1.029,7.907,1.409l0,0c1.749,0.245,3.567,0.464,5.408,0.647
	c4.049,0.397,8.193,0.607,12.324,0.633c-0.014,1.07-0.023,2.011-0.027,2.964h0.583h-0.583l-0.004,1.69
	c-4.474-0.031-9.03-0.266-13.56-0.71c-0.889-0.09-1.862-0.191-2.979-0.325c-4.262-0.502-8.326-1.18-12.103-2.011
	c0.458-0.869,0.944-1.672,1.447-2.39C40.134,71.828,40.403,71.477,40.686,71.142L40.686,71.142z M102.001,51.235l-0.606-0.39
	c-0.829,1.285-1.474,2.642-1.926,4.043c-0.825-0.659-1.759-1.291-2.788-1.875c-1.823-1.037-3.933-1.961-6.27-2.756
	c0.098-0.484,0.215-0.977,0.345-1.474l-0.563-0.152l0.563,0.152c0.369-1.388,0.849-2.721,1.424-3.974
	c2.435,0.798,4.638,1.721,6.544,2.746c1.291,0.694,2.437,1.438,3.412,2.222c-0.26,0.349-0.51,0.704-0.741,1.064L102.001,51.235z
	 M21.848,53.707c0.061,0.316,0.14,0.636,0.242,0.956l0,0c0.633,1.979,2.059,3.891,4.236,5.677l0,0
	c0.166,0.134,0.337,0.272,0.513,0.405c-1.488,0.047-3.018,0.354-4.523,0.912c-0.002-0.002-0.006-0.004-0.008-0.004l0,0
	c-2.154-1.462-3.829-3.029-4.979-4.659c-0.875-1.24-1.427-2.498-1.649-3.747c0.326-0.039,0.644-0.072,0.954-0.092
	C18.39,53.046,20.14,53.235,21.848,53.707z M37.76,75.961c0.053-0.113,0.098-0.219,0.146-0.316
	c3.894,0.874,8.094,1.579,12.502,2.098c1.119,0.131,2.104,0.238,2.998,0.326c4.566,0.446,9.159,0.684,13.669,0.715v0.047
	c-0.006,0.854-0.006,1.708-0.008,2.565v1.436l0.581,0.004l-0.581-0.004l-0.004,1.049c0,0.524,0,1.049,0,1.571
	c-4.816-0.031-9.731-0.289-14.615-0.776c-0.829-0.086-1.733-0.18-2.763-0.304l-0.068,0.577l0.068-0.577
	c-4.94-0.579-9.632-1.385-13.97-2.379C36.228,79.85,36.912,77.82,37.76,75.961L37.76,75.961z M68.228,83.884l0.002-1.049l0,0
	l0.004-1.439c0-0.854,0-1.707,0.004-2.562v-0.047c5.529-0.01,11.118-0.339,16.616-0.984c0.949-0.111,1.775-0.214,2.54-0.317
	c3.614-0.487,6.951-1.08,10.195-1.81l0,0c0.039-0.012,0.078-0.02,0.113-0.027l0.031,0.059c0.902,1.903,1.649,4.066,2.18,6.281
	c-3.479,0.813-7.063,1.474-10.948,2.016c-1.018,0.145-2.129,0.281-3.402,0.431c-5.743,0.673-11.57,1.017-17.337,1.021
	C68.226,84.933,68.226,84.406,68.228,83.884z M80.379,36.464c0.152,1.436,0.15,2.869,0.125,4.559
	c-0.982-0.137-1.963-0.258-2.921-0.361c-0.452-0.049-0.947-0.096-1.562-0.149l-0.049,0.579l0.049-0.579
	c-5.37-0.471-11.371-0.48-16.96-0.034c-0.279-1.51-0.603-2.894-0.985-4.227c-0.014-0.05-0.031-0.102-0.046-0.154
	c6.355-0.487,13.136-0.476,19.179,0.042c0.546,0.046,1.029,0.091,1.472,0.135C79.198,36.329,79.755,36.39,80.379,36.464z
	 M34.787,36.915c0.942,0.249,1.924,0.751,2.848,1.465l0,0c0.016,0.014,0.033,0.025,0.051,0.036l0.021,0.016
	c0.082,0.062,0.162,0.13,0.244,0.2c-3.793,1.248-7.073,2.766-9.753,4.516c-0.302,0.198-0.597,0.4-0.903,0.618l0,0
	c-0.304,0.218-0.612,0.45-0.928,0.707c-1.093-0.542-2.222-0.957-3.361-1.226c-0.458-0.109-0.916-0.195-1.372-0.257
	c0.203-0.143,0.401-0.283,0.602-0.417c2.162-1.447,4.728-2.77,7.628-3.932C31.404,38.021,33.06,37.441,34.787,36.915z M34.796,89.69
	c-0.02-2.053,0.21-4.302,0.671-6.567c4.375,1.01,9.108,1.817,14.083,2.403l0,0c1.037,0.123,1.949,0.221,2.784,0.303
	c4.924,0.493,9.875,0.756,14.73,0.785c0,1.066,0,2.133,0.004,3.195v0.667l0,0v0.554c0.002,0.783,0.004,1.569,0.008,2.354
	c-5.006-0.033-10.113-0.313-15.194-0.842c-1.599-0.168-3.24-0.366-4.881-0.589C42.731,91.369,38.629,90.605,34.796,89.69z
	 M111.747,43.281c-1.127,0.27-2.246,0.682-3.333,1.226c-0.408-0.322-0.851-0.647-1.324-0.973l-0.329,0.48l0.329-0.48
	c-0.986-0.671-2.068-1.312-3.219-1.902c-2.141-1.101-4.575-2.095-7.24-2.962c0.078-0.064,0.154-0.125,0.227-0.186l0.079-0.061
	l-0.36-0.458l0.36,0.458c0.907-0.714,1.874-1.222,2.8-1.477c1.687,0.513,3.32,1.078,4.862,1.685
	c1.567,0.618,2.963,1.233,4.264,1.886c1.567,0.784,2.99,1.623,4.248,2.505C112.651,43.085,112.199,43.171,111.747,43.281z
	 M103.45,36.955l0.025-0.088L103.45,36.955L103.45,36.955z M78.644,33.088l-0.004,0.021c0.178,0.015,0.352,0.029,0.526,0.043
	c0.162,0.012,0.324,0.028,0.483,0.041c0.098,0.21,0.191,0.477,0.277,0.797c0.113,0.411,0.207,0.835,0.286,1.284
	c-0.513-0.061-0.98-0.111-1.417-0.155c-0.448-0.044-0.936-0.09-1.489-0.137c-6.191-0.528-13.147-0.534-19.639-0.021
	c-0.199-0.573-0.4-1.059-0.624-1.513c-0.07-0.144-0.14-0.289-0.216-0.432c1.039-0.083,2.08-0.158,3.111-0.217
	c5.531-0.273,11.204-0.22,16.852,0.154c0.485,0.037,0.969,0.08,1.456,0.123l0.392,0.034L78.644,33.088L78.644,33.088z
	 M31.217,36.878L31.217,36.878l-0.035-0.115L31.217,36.878z M21.587,41.606c-0.554,0.371-1.107,0.772-1.688,1.227l0,0l-0.039,0.031
	c-0.627-0.003-1.25,0.041-1.86,0.129c2.223-1.347,4.741-2.575,7.533-3.677C24.105,40.039,22.788,40.803,21.587,41.606z
	 M11.001,48.949c0.901-1.211,2.082-2.404,3.513-3.549c1.167-0.676,2.491-1.11,3.891-1.285c-2.335,2.192-3.665,4.512-3.946,6.91
	l0.579,0.066l-0.579-0.066c-0.047,0.409-0.063,0.827-0.045,1.25c-1.737,0.333-3.402,0.926-4.954,1.772l0,0
	c-0.203,0.109-0.411,0.232-0.632,0.367c0.102-1.626,0.679-3.24,1.72-4.815l0,0C10.703,49.356,10.853,49.146,11.001,48.949
	l-0.468-0.347L11.001,48.949z M12.116,73.801c1.345,0.92,2.821,1.805,4.394,2.624l0.269-0.515l-0.269,0.515
	c0.039,0.02,0.078,0.039,0.115,0.063c0.049,0.023,0.095,0.051,0.148,0.078c1.956,1.008,4.073,1.953,6.291,2.814l0.21-0.542
	l-0.21,0.542c0.047,0.02,0.094,0.033,0.141,0.051c0.035,0.014,0.072,0.027,0.107,0.043l0,0c3.258,1.248,6.825,2.358,10.607,3.287
	l0.136-0.565l-0.136,0.565c0.136,0.033,0.275,0.066,0.413,0.102c-0.458,2.241-0.698,4.478-0.702,6.54
	c-0.443-0.111-0.885-0.221-1.328-0.341l-0.15,0.563l0.15-0.563c-1.316-0.348-2.458-0.675-3.498-0.99
	c-4.041-1.244-7.796-2.718-11.159-4.383c-0.719-0.354-1.265-0.64-1.77-0.908c-1.718-0.925-3.32-1.931-4.774-2.991
	c-0.008-0.304-0.008-0.619,0.004-0.945l-0.581-0.018l0.581,0.018C11.169,77.165,11.508,75.474,12.116,73.801z M35.754,95.752
	c-0.509-1.283-0.817-2.913-0.922-4.858c3.784,0.893,7.817,1.638,12.013,2.211c1.653,0.225,3.307,0.425,4.917,0.591
	c5.124,0.532,10.272,0.818,15.317,0.848v0.023c0,0.254,0.002,0.511,0.002,0.765l0.01,1.982l0.581-0.002l-0.581,0.004
	c0.002,0.71,0.012,1.419,0.018,2.129c-4.975-0.031-10.071-0.324-15.149-0.885c-3.055-0.336-6.042-0.761-8.876-1.26l-0.102,0.571
	l0.102-0.571C40.61,96.861,38.146,96.341,35.754,95.752z M68.271,99.45c-0.01-0.716-0.018-1.429-0.02-2.143l0,0l-0.01-1.982
	c0-0.254,0-0.505-0.002-0.759v-0.016c6.704-0.008,13.496-0.472,20.199-1.388l0.39-0.051c0.245-0.031,0.495-0.066,0.739-0.102
	c3.979-0.569,7.651-1.263,11.207-2.115c-0.121,1.939-0.448,3.571-0.975,4.853c-2.397,0.599-4.927,1.137-7.525,1.591
	c-1.399,0.245-2.647,0.448-3.813,0.62C81.667,98.949,75.057,99.44,68.271,99.45z M124.235,78.683
	c0.02,0.401,0.016,0.793,0.004,1.173c-2.1,1.552-4.394,2.921-6.998,4.178l0.249,0.524l-0.249-0.524
	c-2.137,1.027-4.523,2.002-7.291,2.978c-1.041,0.366-2.164,0.73-3.533,1.147l0,0c-1.356,0.418-2.608,0.774-3.816,1.09l0.144,0.562
	l-0.144-0.562c-0.207,0.051-0.41,0.102-0.612,0.152c0.004-1.941-0.207-4.064-0.616-6.188l0,0c-0.023-0.119-0.051-0.238-0.074-0.358
	c2.864-0.698,5.516-1.467,8.089-2.344c0.734-0.252,1.522-0.53,2.407-0.861l-0.176-0.466l0,0l0.176,0.466l0.07-0.027l0,0
	c2.421-0.901,4.544-1.825,6.496-2.829c1.779-0.914,3.392-1.879,4.908-2.93C123.841,75.462,124.165,77.08,124.235,78.683l0.583-0.027
	L124.235,78.683z M123.791,72.046c0,0.002-0.002,0.002-0.004,0.002c-0.771-1.722-1.789-3.337-3.031-4.81l0,0
	c-0.195-0.229-0.388-0.444-0.579-0.654c0.589-0.43,1.156-0.87,1.685-1.314l-0.376-0.444l0.376,0.444
	c1.127-0.951,2.102-1.945,2.898-2.961c1.449-1.837,2.313-3.743,2.575-5.673c1.477,1.196,2.679,2.644,3.51,4.234
	c0,0.31-0.016,0.621-0.051,0.932l0,0c-0.195,1.852-0.943,3.7-2.227,5.495C127.405,68.927,125.796,70.525,123.791,72.046
	L123.791,72.046z M130.5,58.203c-0.865-1.109-1.906-2.112-3.092-2.971c-0.014-1.08-0.214-2.16-0.597-3.23
	C128.692,53.968,129.927,56.042,130.5,58.203z M116.601,42.994c-0.565-0.074-1.141-0.109-1.722-0.104
	c-1.456-1.138-3.166-2.213-5.086-3.202c1.495,0.604,2.916,1.242,4.25,1.911C114.934,42.046,115.786,42.512,116.601,42.994z
	 M8.176,51.773c-0.382,1.126-0.558,2.271-0.528,3.419c-1.271,0.922-2.38,2.008-3.289,3.21C4.813,56.14,6.092,53.924,8.176,51.773z
	 M2.675,70.181l0.556-0.166c-0.32-1.064-0.479-2.137-0.47-3.189L2.18,66.821l0.583-0.012c-0.025-1.353,0.164-2.667,0.561-3.922
	c0.378,1.536,1.088,3.068,2.125,4.567c1.225,1.765,2.893,3.483,4.967,5.1l0,0c0.232,0.186,0.476,0.364,0.726,0.546
	c-0.722,1.888-1.125,3.8-1.195,5.7l0,0c-0.002,0.033-0.002,0.07-0.002,0.105c-0.043-0.033-0.085-0.066-0.128-0.1l0,0
	c-2.164-1.748-3.86-3.583-5.045-5.458l-0.413,0.263l0.019-0.016l0.394-0.251H4.769v-0.004l-0.018-0.029
	c-0.674-1.023-1.185-2.131-1.517-3.291L2.675,70.181z M5.225,75.943c1.064,1.292,2.355,2.554,3.862,3.771l0.363-0.455l-0.363,0.455
	c0.289,0.231,0.585,0.46,0.877,0.682c0.086,1.32,0.335,2.577,0.747,3.745C7.827,81.536,5.969,78.76,5.225,75.943z M20.332,91.627
	c3.145,1.487,6.61,2.811,10.328,3.938c1.384,0.417,2.817,0.813,4.262,1.178c0.07,0.152,0.148,0.304,0.23,0.454l0.501-0.274l0,0
	l-0.501,0.276c0.175,0.313,0.363,0.604,0.563,0.869c-5.788-1.637-10.849-3.734-15.076-6.252
	C20.538,91.756,20.437,91.691,20.332,91.627z M67.797,102.805v-0.008l0,0V102.805z M86.416,100.873
	c-6.103,0.891-12.036,1.332-18.119,1.348c0-0.033,0-0.066,0-0.102c0.004-0.104,0.004-0.211,0-0.316v-0.045l-1.162,0.037v0.031
	c0.004,0.094,0.004,0.188,0,0.281c0,0.035,0,0.076,0,0.111c-4.737-0.031-9.583-0.324-14.418-0.888
	c-4.851-0.558-9.475-1.368-13.74-2.405v-0.002l-0.201-0.047c-0.076-0.018-0.154-0.037-0.228-0.053
	c-0.292-0.094-0.562-0.223-0.823-0.401c-0.472-0.324-0.897-0.761-1.263-1.311c2.105,0.503,4.258,0.951,6.417,1.33l0,0
	c2.862,0.507,5.872,0.934,8.952,1.271c5.127,0.562,10.266,0.862,15.288,0.894c0.004,0.39,0.008,0.779,0.016,1.171l1.162-0.023
	c-0.008-0.382-0.012-0.762-0.016-1.144c6.839-0.014,13.5-0.503,20.347-1.506c1.176-0.169,2.436-0.374,3.847-0.623
	c2.262-0.398,4.468-0.856,6.587-1.361c-0.382,0.554-0.82,0.996-1.31,1.316c-0.201,0.135-0.403,0.235-0.626,0.323
	c-0.257,0.064-0.511,0.131-0.768,0.193l0,0C93.196,99.732,89.944,100.36,86.416,100.873z M104.737,96.45
	c-1.585,0.57-3.205,1.091-4.894,1.579c0.205-0.275,0.397-0.565,0.573-0.886l-0.44-0.241l0,0l0.44,0.241
	c0.076-0.137,0.146-0.272,0.214-0.405c1.311-0.337,2.608-0.694,3.862-1.076c1.558-0.468,2.953-0.926,4.279-1.399
	c2.098-0.751,3.975-1.511,5.708-2.301C111.743,93.615,108.608,95.056,104.737,96.45z M118.155,90.118
	c0.002-0.004,0.006-0.008,0.01-0.01l0.016,0.037L118.155,90.118z M124.625,84.131c0.085-0.243,0.165-0.489,0.237-0.739l-0.558-0.159
	l0.558,0.159c0.27-0.926,0.44-1.91,0.513-2.93c0.088-0.066,0.17-0.135,0.252-0.201c0.069-0.05,0.136-0.104,0.202-0.159
	c1.534-1.205,2.845-2.449,3.915-3.708C129.048,79.057,127.334,81.644,124.625,84.131z M130.181,73.879
	c-1.119,1.715-2.726,3.423-4.772,5.07c-0.004-0.105-0.008-0.213-0.012-0.319l0,0c-0.082-1.823-0.47-3.663-1.154-5.473
	c0.086-0.059,0.168-0.121,0.25-0.186l-0.352-0.462l0.352,0.462c2.1-1.589,3.79-3.272,5.021-5c1.127-1.579,1.878-3.209,2.242-4.854
	c0.364,1.252,0.524,2.554,0.472,3.899l0.581,0.02l-0.581,0.023C132.32,69.363,131.631,71.656,130.181,73.879z"/>
</svg>
