<?xml version="1.0" encoding="utf-8"?>
<!-- Generator: Adobe Illustrator 17.0.0, SVG Export Plug-In . SVG Version: 6.00 Build 0)  -->
<!DOCTYPE svg PUBLIC "-//W3C//DTD SVG 1.1//EN" "http://www.w3.org/Graphics/SVG/1.1/DTD/svg11.dtd">
<svg version="1.1" id="Layer_1" xmlns="http://www.w3.org/2000/svg" xmlns:xlink="http://www.w3.org/1999/xlink" x="0px" y="0px"
	 width="50px" height="50px" viewBox="0 0 50 50" enable-background="new 0 0 50 50" xml:space="preserve">
<g>
	<g>
		<path fill-rule="evenodd" clip-rule="evenodd" fill="#FFFFFF" d="M34.537,20.428c-0.873,0-1.581,0.719-1.581,1.606v6.276
			c0,0.887,0.708,1.606,1.581,1.606c0.873,0,1.581-0.719,1.581-1.606v-6.276C36.118,21.147,35.41,20.428,34.537,20.428z
			 M15.464,20.428c-0.873,0-1.581,0.719-1.581,1.606v6.276c0,0.887,0.708,1.606,1.581,1.606c0.874,0,1.581-0.719,1.581-1.606v-6.276
			C17.045,21.147,16.337,20.428,15.464,20.428z"/>
		<path fill-rule="evenodd" clip-rule="evenodd" fill="#FFFFFF" d="M17.997,20.476v11.466c0,0.681,0.552,1.233,1.233,1.233h1.409
			v3.491c0,0.887,0.708,1.606,1.581,1.606c0.874,0,1.581-0.719,1.581-1.606v-3.491h2.461v3.491c0,0.887,0.708,1.606,1.581,1.606
			c0.873,0,1.581-0.719,1.581-1.606v-3.491h1.409c0.681,0,1.233-0.552,1.233-1.233V20.476H17.997z"/>
		<path fill-rule="evenodd" clip-rule="evenodd" fill="#FFFFFF" d="M28.335,14.535l1.3-1.887c0.077-0.112,0.058-0.259-0.043-0.328
			c-0.101-0.069-0.245-0.035-0.322,0.077l-1.35,1.959c-0.89-0.351-1.878-0.546-2.92-0.546c-1.041,0-2.03,0.195-2.919,0.546
			l-1.351-1.959c-0.077-0.113-0.221-0.147-0.322-0.077c-0.101,0.069-0.12,0.217-0.043,0.328l1.3,1.887
			c-2.066,0.961-3.516,2.788-3.7,4.92h14.069C31.851,17.323,30.401,15.496,28.335,14.535z M22.032,17.508
			c-0.43,0-0.778-0.348-0.778-0.778c0-0.43,0.348-0.779,0.778-0.779c0.43,0,0.778,0.349,0.778,0.779
			C22.811,17.16,22.462,17.508,22.032,17.508z M28.065,17.508c-0.43,0-0.778-0.348-0.778-0.778c0-0.43,0.348-0.779,0.778-0.779
			c0.43,0,0.778,0.349,0.778,0.779C28.844,17.16,28.495,17.508,28.065,17.508z"/>
	</g>
	<g>
		<path fill="#FFFFFF" d="M25,46.645c-11.935,0-21.645-9.71-21.645-21.645S13.065,3.355,25,3.355
			c11.935,0,21.646,9.71,21.646,21.645S36.935,46.645,25,46.645z M25,4.084C13.467,4.084,4.084,13.467,4.084,25
			S13.467,45.916,25,45.916S45.916,36.533,45.916,25S36.533,4.084,25,4.084z"/>
	</g>
	<g>
		<path fill="#FFFFFF" d="M25,49.625C11.422,49.625,0.376,38.578,0.376,25S11.422,0.375,25,0.375
			c13.578,0,24.625,11.047,24.625,24.625S38.578,49.625,25,49.625z M25,0.74C11.623,0.74,0.74,11.623,0.74,25S11.623,49.26,25,49.26
			c13.377,0,24.26-10.883,24.26-24.26S38.377,0.74,25,0.74z"/>
	</g>
</g>
</svg>
