<?xml version="1.0" encoding="utf-8"?>
<!-- Generator: Adobe Illustrator 15.1.0, SVG Export Plug-In . SVG Version: 6.00 Build 0)  -->
<!DOCTYPE svg PUBLIC "-//W3C//DTD SVG 1.1//EN" "http://www.w3.org/Graphics/SVG/1.1/DTD/svg11.dtd">
<svg version="1.1" id="Layer_5" xmlns="http://www.w3.org/2000/svg" xmlns:xlink="http://www.w3.org/1999/xlink" x="0px" y="0px"
	 width="134.999px" height="135px" viewBox="0 0 134.999 135" enable-background="new 0 0 134.999 135" xml:space="preserve">
<g>
	<g>
		<path fill-rule="evenodd" clip-rule="evenodd" fill="#FFFFFF" d="M93.641,54.967c-2.394,0-4.334,1.971-4.334,4.401v17.203
			c0,2.432,1.94,4.403,4.334,4.403s4.334-1.972,4.334-4.403V59.368C97.975,56.938,96.034,54.967,93.641,54.967z M41.359,54.967
			c-2.394,0-4.334,1.971-4.334,4.401v17.203c0,2.432,1.94,4.403,4.334,4.403c2.395,0,4.334-1.972,4.334-4.403V59.368
			C45.693,56.938,43.754,54.967,41.359,54.967z"/>
		<path fill-rule="evenodd" clip-rule="evenodd" fill="#FFFFFF" d="M48.303,55.1v31.43c0,1.867,1.513,3.381,3.38,3.381h3.861v9.57
			c0,2.432,1.94,4.402,4.334,4.402c2.395,0,4.335-1.971,4.335-4.402v-9.57h6.746v9.57c0,2.432,1.941,4.402,4.335,4.402
			s4.334-1.971,4.334-4.402v-9.57h3.861c1.867,0,3.38-1.514,3.38-3.381V55.1H48.303z"/>
		<path fill-rule="evenodd" clip-rule="evenodd" fill="#FFFFFF" d="M76.642,38.813l3.563-5.172c0.211-0.307,0.158-0.711-0.118-0.9
			c-0.276-0.19-0.672-0.097-0.883,0.212l-3.701,5.371c-2.438-0.961-5.148-1.496-8.003-1.496s-5.563,0.535-8.002,1.496l-3.702-5.371
			c-0.211-0.309-0.606-0.402-0.883-0.212c-0.276,0.189-0.329,0.594-0.118,0.9l3.563,5.172c-5.664,2.635-9.637,7.643-10.142,13.486
			h38.566C86.278,46.456,82.306,41.448,76.642,38.813z M59.364,46.964c-1.179,0-2.134-0.955-2.134-2.133
			c0-1.179,0.955-2.135,2.134-2.135s2.134,0.956,2.134,2.135C61.498,46.009,60.543,46.964,59.364,46.964z M75.902,46.964
			c-1.179,0-2.134-0.955-2.134-2.133c0-1.179,0.955-2.135,2.134-2.135s2.134,0.956,2.134,2.135
			C78.036,46.009,77.081,46.964,75.902,46.964z"/>
	</g>
	<g>
		<path fill="#FFFFFF" d="M67.499,126.833c-32.716,0-59.333-26.616-59.333-59.333S34.783,8.167,67.499,8.167
			c32.717,0,59.334,26.616,59.334,59.333S100.216,126.833,67.499,126.833z M67.499,10.167c-31.613,0-57.333,25.72-57.333,57.333
			s25.72,57.333,57.333,57.333s57.334-25.72,57.334-57.333S99.112,10.167,67.499,10.167z"/>
	</g>
	<g>
		<path fill="#FFFFFF" d="M67.499,135C30.28,135,0,104.72,0,67.5S30.28,0,67.499,0c37.221,0,67.5,30.28,67.5,67.5
			S104.72,135,67.499,135z M67.499,1C30.831,1,1,30.832,1,67.5S30.831,134,67.499,134c36.669,0,66.5-29.832,66.5-66.5
			S104.168,1,67.499,1z"/>
	</g>
</g>
</svg>
