<?xml version="1.0" encoding="utf-8"?>
<!-- Generator: Adobe Illustrator 15.1.0, SVG Export Plug-In . SVG Version: 6.00 Build 0)  -->
<!DOCTYPE svg PUBLIC "-//W3C//DTD SVG 1.1//EN" "http://www.w3.org/Graphics/SVG/1.1/DTD/svg11.dtd">
<svg version="1.1" id="Layer_5" xmlns="http://www.w3.org/2000/svg" xmlns:xlink="http://www.w3.org/1999/xlink" x="0px" y="0px"
	 width="135px" height="135px" viewBox="0 0 135 135" enable-background="new 0 0 135 135" xml:space="preserve">
<g>
	<g>
		<path fill-rule="evenodd" clip-rule="evenodd" fill="#FFFFFF" d="M74.552,43.093c2.28-2.846,3.94-6.762,3.512-10.709
			c-3.405,0.124-7.461,2.246-9.877,5.11c-2.176,2.468-4.065,6.538-3.524,10.367C68.365,48.106,72.17,45.958,74.552,43.093z"/>
		<g>
			<path fill-rule="evenodd" clip-rule="evenodd" fill="#FFFFFF" d="M40.154,82.589h0.011c0-0.007-0.006-0.017-0.011-0.02V82.589z"
				/>
			<path fill-rule="evenodd" clip-rule="evenodd" fill="#FFFFFF" d="M84.414,74.208H38.031l0.006-0.003H84.36v-0.102
				c-1.062-2.137-1.545-5.478-1.139-8.184v-0.101h0.003c0.424-3.543,2.707-7.169,4.531-8.483c0.022-0.016,0.047-0.035,0.072-0.055
				v-0.008h0.004c0.405-0.446,1.559-1.372,2.337-1.933c-2.877-4.232-7.586-6.516-12.383-6.589
				c-4.836-0.406-9.856,3.062-12.563,2.982c-2.619,0.079-6.575-3.051-10.749-2.854l-0.041-0.005c-0.094,0-0.846,0.041-0.846,0.041
				c-5.533,0.136-10.438,3.396-13.222,8.341v0.016h-0.018v-0.016c-1.102,1.781-2.423,5.934-2.621,8.562v0.14
				c-0.267,1.668-0.009,6.111,0.291,8.249c0.013,0.037,0.016,0.076,0.019,0.107l0.006-0.005c0.233,2.13,1.315,6.247,2.126,8.259
				v0.02h-0.004c0.779,2.224,2.954,6.395,4.358,8.528v0.016h0.015c2.835,4.071,6.174,8.647,10.576,8.451
				c4.252-0.163,5.817-2.824,10.939-2.784c5.119-0.04,6.536,2.656,11.021,2.676c4.574-0.196,7.407-4.266,10.245-8.343
				c1.389-2.101,3.568-6.145,4.339-8.544h0.011c0.086-0.254,0.215-0.644,0.307-0.928C88.969,80.809,85.595,76.847,84.414,74.208z"/>
		</g>
	</g>
	<g>
		<path fill="#FFFFFF" d="M67.5,126.833c-32.716,0-59.333-26.616-59.333-59.333S34.784,8.167,67.5,8.167
			s59.333,26.616,59.333,59.333S100.216,126.833,67.5,126.833z M67.5,10.167c-31.613,0-57.333,25.72-57.333,57.333
			s25.72,57.333,57.333,57.333s57.333-25.72,57.333-57.333S99.113,10.167,67.5,10.167z"/>
	</g>
	<g>
		<path fill="#FFFFFF" d="M67.5,135C30.28,135,0,104.72,0,67.5S30.28,0,67.5,0S135,30.28,135,67.5S104.72,135,67.5,135z M67.5,1
			C30.832,1,1,30.832,1,67.5S30.832,134,67.5,134S134,104.168,134,67.5S104.168,1,67.5,1z"/>
	</g>
</g>
</svg>
