<?xml version="1.0" encoding="utf-8"?>
<!-- Generator: Adobe Illustrator 15.1.0, SVG Export Plug-In . SVG Version: 6.00 Build 0)  -->
<!DOCTYPE svg PUBLIC "-//W3C//DTD SVG 1.1//EN" "http://www.w3.org/Graphics/SVG/1.1/DTD/svg11.dtd">
<svg version="1.1" id="Layer_5" xmlns="http://www.w3.org/2000/svg" xmlns:xlink="http://www.w3.org/1999/xlink" x="0px" y="0px"
	 width="135px" height="135px" viewBox="0 0 135 135" enable-background="new 0 0 135 135" xml:space="preserve">
<g id="Your_Icon">
	<g>
		<path fill="#FFFFFF" d="M128.903,21.218c-0.004-0.028,0.006-0.053,0.004-0.081c-0.004-0.021-0.015-0.035-0.019-0.055
			c-0.023-0.136-0.063-0.268-0.125-0.393c-0.005-0.013-0.007-0.028-0.016-0.041c-0.064-0.132-0.156-0.251-0.263-0.36
			c-0.029-0.03-0.063-0.054-0.093-0.082c-0.05-0.044-0.091-0.093-0.147-0.13c-0.038-0.025-0.081-0.038-0.118-0.058
			c-0.044-0.023-0.084-0.044-0.128-0.064c-0.114-0.051-0.233-0.085-0.352-0.104c-0.025-0.004-0.044-0.018-0.07-0.021l-39.471-4.925
			l-0.029-0.083l-0.171,0.058l-19.917-2.485c-0.197-0.026-0.398-0.01-0.591,0.042l-3.755,1.025l-4.498-3.505
			c-0.491-0.402-1.157-0.449-1.688-0.168l0,0l-18.358,8.158l0.005,0.008c-0.265,0.14-0.489,0.347-0.633,0.615l-1.121,2.067
			l-4.664,1.273c-0.005,0.001-0.008,0.004-0.013,0.005c-0.146,0.042-0.282,0.109-0.412,0.193c-0.031,0.021-0.061,0.042-0.092,0.064
			c-0.03,0.024-0.065,0.04-0.093,0.065c-0.087,0.076-0.161,0.161-0.228,0.251c-0.002,0.002-0.004,0.005-0.004,0.007
			c-0.088,0.123-0.147,0.259-0.197,0.399c-0.011,0.035-0.022,0.069-0.033,0.106c-0.036,0.14-0.059,0.283-0.055,0.43v0.038
			c0,0,0,0,0,0.001c0,0.001,0,0,0,0l0.224,7.43l-4.177,7.709c-0.003,0.005-0.007,0.012-0.01,0.017L17.114,57.97
			c-0.004,0.002-0.005,0.007-0.007,0.01L6.264,77.982c-0.327,0.606-0.21,1.357,0.288,1.833l47.17,45.143
			c0.286,0.28,0.663,0.43,1.059,0.43c0.07,0,0.143-0.006,0.213-0.016c0.177-0.024,0.344-0.089,0.498-0.173l0.003,0.011l18.361-12.24
			l-0.004-0.007c0.249-0.129,0.465-0.323,0.613-0.587l5.887-8.966l17.889,4.315c0.121,0.029,0.24,0.042,0.358,0.042
			c0.154,0,0.308-0.029,0.457-0.079c0.045-0.012,0.086-0.035,0.13-0.053c0.065-0.027,0.131-0.042,0.189-0.081l27.771-16.318
			c0.461-0.271,0.747-0.765,0.755-1.298l1.02-68.566C128.922,21.319,128.907,21.27,128.903,21.218z M88.215,18.003l14.597,1.822
			l-7.154,2.834l-15.072-2.122L88.215,18.003z M94.378,72.855l-11.866,6.38l9.962-17.127l11.686-6.281L94.378,72.855z
			 M82.887,92.856l-12.224,6.739l8.905-15.306l11.922-6.41L82.887,92.856z M25.146,93.383L35.277,75.58l14.67,12.896L39.45,107.072
			L25.146,93.383z M36.826,72.863l9.787-17.2l14.979,12.184L51.486,85.753L36.826,72.863z M29.424,41.682l14.783,12.022
			l-9.729,17.095L20.367,58.393L29.424,41.682z M40.283,21.652l15.163,12.299l-9.707,17.06L30.907,38.945L40.283,21.652z
			 M75.093,22.853l14.812,2.085l-8.271,3.278L75.093,22.853z M88.527,37.822l-13.628,7.96l-14.73-11.944l14.191-7.629L88.527,37.822
			z M79.444,78.422L65.526,67.103l9.673-17.135l14.134,11.459L79.444,78.422z M63.12,65.143L48.146,52.965l9.711-17.063
			L72.789,48.01L63.12,65.143z M64.003,69.804l13.883,11.294L67.16,99.532L53.836,87.816L64.003,69.804z M91.435,59.192
			L77.44,47.844l13.61-7.95l14.368,11.783L91.435,59.192z M88.077,33.499l8.993,1.4v5.975L88.077,33.499z M85.455,29.994
			l10.576-4.192l12.75,1.795L98.405,32.01L85.455,29.994z M67.91,15.472l13.246,1.651l-7.386,2.452l-3.227-0.454l-3.996-3.276
			L67.91,15.472z M71.804,24.113l-14.209,7.638L42.576,19.572l15.417-6.601L71.804,24.113z M34.673,25.184l0.158,0.105l-0.147,0.266
			L34.673,25.184z M18.871,61.152l14.063,12.363L22.868,91.201L9.511,78.417L18.871,61.152z M41.73,109.257l10.564-18.716
			L65.59,102.23l-11.16,19.183L41.73,109.257z M72.031,110.473l-13.241,9.53l8.878-15.261l12.281-6.77L72.031,110.473z
			 M97.068,104.297l-15.127-3.647l3.176-5.528l0.216-0.119l-0.073-0.132l8.188-14.254l3.62,0.727V104.297z M95.058,77.82
			l1.538-2.685l0.071-0.038l-0.023-0.042l0.425-0.743v3.913L95.058,77.82z M112.976,96.016l-12.845,7.55V81.555l12.845-6.789V96.016
			z M112.976,71.306l-12.845,6.789v-9.113l9.35-16.279c0.002-0.007,0.006-0.016,0.011-0.024c0.029-0.054,0.052-0.11,0.074-0.167
			c0.017-0.037,0.034-0.076,0.046-0.115c0.02-0.054,0.027-0.11,0.038-0.166c0.007-0.042,0.019-0.084,0.023-0.127
			c0.006-0.053,0.002-0.105,0.002-0.156c0-0.046,0.007-0.093,0-0.138c-0.003-0.052-0.014-0.103-0.025-0.154c0-0.001,0-0.001,0-0.001
			l3.326-1.636V71.306z M112.976,46.61l-5.571,2.739l-7.273-5.966V34.6l0.457-0.195l12.388-5.267V46.61z M101.786,23.522l7.339-2.91
			l12.44,1.552l-1.306,0.554l-6.018,2.559L101.786,23.522z M124.853,89.037l-8.817,5.183V73.151l9.125-4.823L124.853,89.037z
			 M125.216,64.839l-9.179,4.852V48.516l9.489-4.668L125.216,64.839z M125.578,40.41l-9.541,4.694V27.838l9.79-4.162L125.578,40.41z
			"/>
	</g>
</g>
</svg>
