<?xml version="1.0" encoding="utf-8"?>
<!-- Generator: Adobe Illustrator 15.1.0, SVG Export Plug-In . SVG Version: 6.00 Build 0)  -->
<!DOCTYPE svg PUBLIC "-//W3C//DTD SVG 1.1//EN" "http://www.w3.org/Graphics/SVG/1.1/DTD/svg11.dtd">
<svg version="1.1" id="Layer_5" xmlns="http://www.w3.org/2000/svg" xmlns:xlink="http://www.w3.org/1999/xlink" x="0px" y="0px"
	 width="109.598px" height="126.552px" viewBox="0 0 109.598 126.552" enable-background="new 0 0 109.598 126.552"
	 xml:space="preserve">
<g>
	<g>
		<path fill="#FFFFFF" d="M54.799,118.114L7.308,90.695V35.857L54.799,8.438l47.492,27.419v54.838L54.799,118.114z M9.308,89.541
			l45.491,26.264l45.492-26.264V37.011L54.799,10.748L9.308,37.012V89.541z"/>
	</g>
	<g>
		<path fill="#FFFFFF" d="M54.799,126.552l-0.25-0.144L0,94.914V31.639L54.799,0l0.25,0.144l54.549,31.494v63.276L54.799,126.552z
			 M1,94.336l53.799,31.062l53.799-31.062V32.215L54.799,1.154L1,32.216V94.336z"/>
	</g>
	<path fill-rule="evenodd" clip-rule="evenodd" fill="#FFFFFF" d="M57.975,56.509h4.433v6.812h-4.433v17.405h-9.285V63.32h-3.453
		v-6.812h3.453V55.42c0-0.988,0.108-2.069,0.318-3.251c0.211-1.182,0.607-2.153,1.198-2.9c0.583-0.746,1.399-1.353,2.457-1.82
		c1.05-0.459,2.598-0.692,4.627-0.692c1.625,0,3.981,0.188,7.077,0.568l-1.011,5.584c-1.112-0.18-2.007-0.273-2.69-0.273
		c-0.841,0-1.438,0.14-1.806,0.42c-0.365,0.28-0.621,0.723-0.77,1.337C58.014,54.72,57.975,55.427,57.975,56.509z"/>
</g>
</svg>
