<?xml version="1.0" encoding="utf-8"?>
<!-- Generator: Adobe Illustrator 17.0.0, SVG Export Plug-In . SVG Version: 6.00 Build 0)  -->
<!DOCTYPE svg PUBLIC "-//W3C//DTD SVG 1.1//EN" "http://www.w3.org/Graphics/SVG/1.1/DTD/svg11.dtd">
<svg version="1.1" id="Layer_1" xmlns="http://www.w3.org/2000/svg" xmlns:xlink="http://www.w3.org/1999/xlink" x="0px" y="0px"
	 width="50px" height="50px" viewBox="0 0 50 50" enable-background="new 0 0 50 50" xml:space="preserve">
<g>
	<g>
		<path fill="#FFFFFF" d="M25,46.521L6.363,35.76V14.24L25,3.479l18.638,10.76V35.76L25,46.521z M7.147,35.307L25,45.614
			l17.853-10.307V14.693L25,4.386L7.147,14.693V35.307z"/>
	</g>
	<g>
		<path fill="#FFFFFF" d="M25,49.832l-0.098-0.057L3.495,37.416V12.584L25,0.168l0.098,0.057l21.407,12.359v24.832L25,49.832z
			 M3.887,37.189L25,49.379l21.113-12.19V12.81L25,0.621L3.887,12.811V37.189z"/>
	</g>
	<path fill-rule="evenodd" clip-rule="evenodd" fill="#FFFFFF" d="M26.246,22.344h1.74v2.673h-1.74v6.831h-3.644v-6.831h-1.355
		v-2.673h1.355v-0.427c0-0.388,0.043-0.812,0.125-1.276c0.083-0.464,0.238-0.845,0.47-1.138c0.229-0.293,0.549-0.531,0.964-0.714
		c0.412-0.18,1.019-0.272,1.816-0.272c0.638,0,1.562,0.074,2.777,0.223l-0.397,2.191c-0.436-0.071-0.787-0.107-1.056-0.107
		c-0.33,0-0.565,0.055-0.708,0.165c-0.143,0.11-0.244,0.284-0.302,0.525C26.262,21.642,26.246,21.92,26.246,22.344z"/>
</g>
</svg>
