<?xml version="1.0" encoding="utf-8"?>
<!-- Generator: Adobe Illustrator 17.0.0, SVG Export Plug-In . SVG Version: 6.00 Build 0)  -->
<!DOCTYPE svg PUBLIC "-//W3C//DTD SVG 1.1//EN" "http://www.w3.org/Graphics/SVG/1.1/DTD/svg11.dtd">
<svg version="1.1" id="Layer_1" xmlns="http://www.w3.org/2000/svg" xmlns:xlink="http://www.w3.org/1999/xlink" x="0px" y="0px"
	 width="50px" height="50px" viewBox="0 0 50 50" enable-background="new 0 0 50 50" xml:space="preserve">
<g>
	<g>
		<path fill-rule="evenodd" clip-rule="evenodd" fill="#FFFFFF" d="M27.599,16.005c0.84-1.049,1.452-2.492,1.294-3.946
			c-1.255,0.046-2.75,0.828-3.64,1.883c-0.802,0.909-1.498,2.409-1.299,3.821C25.319,17.853,26.721,17.061,27.599,16.005z"/>
		<g>
			<polygon fill-rule="evenodd" clip-rule="evenodd" fill="#FFFFFF" points="14.922,30.561 14.927,30.561 14.922,30.553 			"/>
			<path fill-rule="evenodd" clip-rule="evenodd" fill="#FFFFFF" d="M31.233,27.472H14.14l0.002-0.001h17.071v-0.037
				c-0.391-0.787-0.569-2.019-0.42-3.016v-0.037h0.001c0.156-1.306,0.997-2.642,1.67-3.126c0.008-0.006,0.017-0.013,0.027-0.02
				v-0.003h0.001c0.149-0.164,0.574-0.506,0.861-0.712c-1.06-1.56-2.796-2.401-4.563-2.428c-1.782-0.15-3.632,1.128-4.63,1.099
				c-0.965,0.029-2.423-1.124-3.961-1.052l-0.015-0.002c-0.035,0-0.312,0.015-0.312,0.015c-2.039,0.05-3.846,1.252-4.873,3.074
				v0.006h-0.006v-0.006c-0.406,0.656-0.893,2.187-0.966,3.155v0.051c-0.098,0.615-0.003,2.252,0.107,3.04
				c0.005,0.014,0.006,0.028,0.007,0.04l0.002-0.002c0.086,0.785,0.485,2.302,0.784,3.044v0.007h-0.002
				c0.287,0.819,1.088,2.356,1.606,3.143v0.006h0.006c1.045,1.5,2.275,3.187,3.898,3.114c1.567-0.06,2.144-1.041,4.031-1.026
				c1.886-0.015,2.408,0.979,4.061,0.986c1.686-0.072,2.73-1.572,3.775-3.074c0.512-0.774,1.315-2.264,1.599-3.149h0.004
				c0.032-0.094,0.079-0.237,0.113-0.342C32.912,29.904,31.668,28.444,31.233,27.472z"/>
		</g>
	</g>
	<g>
		<path fill="#FFFFFF" d="M25,46.865C12.943,46.865,3.135,37.057,3.135,25S12.943,3.135,25,3.135
			c12.057,0,21.865,9.809,21.865,21.865S37.057,46.865,25,46.865z M25,3.872C13.35,3.872,3.872,13.35,3.872,25
			S13.35,46.128,25,46.128c11.65,0,21.128-9.478,21.128-21.128S36.65,3.872,25,3.872z"/>
	</g>
	<g>
		<path fill="#FFFFFF" d="M25,49.875C11.284,49.875,0.125,38.716,0.125,25S11.284,0.125,25,0.125
			c13.716,0,24.875,11.159,24.875,24.875S38.716,49.875,25,49.875z M25,0.494C11.487,0.494,0.494,11.487,0.494,25
			S11.487,49.506,25,49.506c13.513,0,24.506-10.994,24.506-24.506S38.513,0.494,25,0.494z"/>
	</g>
</g>
</svg>
