<?xml version="1.0" encoding="utf-8"?>
<!-- Generator: Adobe Illustrator 15.1.0, SVG Export Plug-In . SVG Version: 6.00 Build 0)  -->
<!DOCTYPE svg PUBLIC "-//W3C//DTD SVG 1.1//EN" "http://www.w3.org/Graphics/SVG/1.1/DTD/svg11.dtd">
<svg version="1.1" id="Layer_5" xmlns="http://www.w3.org/2000/svg" xmlns:xlink="http://www.w3.org/1999/xlink" x="0px" y="0px"
	 width="135px" height="135px" viewBox="0 0 135 135" enable-background="new 0 0 135 135" xml:space="preserve">
<path fill="#FFFFFF" d="M127.658,78.179H115.73V67.5c0-1.742-1.414-3.156-3.159-3.156H70.225v-7.524h11.929
	c3.399,0,6.165-2.765,6.165-6.166V20.489c0-3.401-2.766-6.167-6.165-6.167H51.987c-3.4,0-6.167,2.767-6.167,6.167v30.165
	c0,3.401,2.767,6.166,6.167,6.166h11.925v7.523h-41.49c-1.743,0-3.155,1.413-3.155,3.155v10.68H7.341
	c-3.399,0-6.166,2.767-6.166,6.168v30.166c0,3.401,2.767,6.165,6.166,6.165h30.167c3.401,0,6.165-2.764,6.165-6.165V84.348
	c0-3.401-2.766-6.169-6.165-6.169H25.58v-7.522h38.336v7.522H51.99c-3.403,0-6.166,2.768-6.166,6.169v30.164
	c0,3.401,2.763,6.167,6.166,6.167h30.165c3.399,0,6.167-2.766,6.167-6.167V84.348c0-3.401-2.768-6.169-6.167-6.169H70.227v-7.522
	h39.19v7.522H97.49c-3.398,0-6.164,2.768-6.164,6.169v30.164c0,3.401,2.766,6.167,6.164,6.167h30.17
	c3.399,0,6.165-2.766,6.165-6.167V84.348C133.822,80.947,131.056,78.179,127.658,78.179z M51.987,20.635l30.021-0.146v30.02
	l-29.876,0.145L51.987,20.635z M37.36,114.367l-29.874,0.145L7.341,84.493l30.021-0.146v30.019H37.36z M82.008,114.367
	l-29.876,0.145l-0.145-30.019l30.021-0.146V114.367z M127.509,114.367l-29.874,0.145l-0.148-30.019l30.022-0.146V114.367
	L127.509,114.367z"/>
</svg>
