<?xml version="1.0" encoding="utf-8"?>
<!-- Generator: Adobe Illustrator 17.0.0, SVG Export Plug-In . SVG Version: 6.00 Build 0)  -->
<!DOCTYPE svg PUBLIC "-//W3C//DTD SVG 1.1//EN" "http://www.w3.org/Graphics/SVG/1.1/DTD/svg11.dtd">
<svg version="1.1" id="Layer_1" xmlns="http://www.w3.org/2000/svg" xmlns:xlink="http://www.w3.org/1999/xlink" x="0px" y="0px"
	 width="50px" height="50px" viewBox="0 0 50 50" enable-background="new 0 0 50 50" xml:space="preserve">
<g>
	<g>
		<path fill="#FFFFFF" d="M25,46.183L6.655,35.591V14.408L25,3.817l18.345,10.592v21.183L25,46.183z M7.427,35.146L25,45.291
			l17.573-10.146V14.854L25,4.709L7.427,14.854V35.146z"/>
	</g>
	<g>
		<path fill="#FFFFFF" d="M25,49.443l-0.097-0.056L3.832,37.221V12.779L25,0.557l0.097,0.056l21.071,12.166v24.443L25,49.443z
			 M4.218,36.998L25,48.997l20.781-11.999V13.001L25,1.003L4.218,13.002V36.998z"/>
	</g>
	<path fill-rule="evenodd" clip-rule="evenodd" fill="#FFFFFF" d="M24.375,27.994c-0.197-0.109-0.807-0.193-1.094-0.288
		c-3.19-1.044-2.053-2.588-1.139-2.495c0.327,0.033,0.624,0.311,0.876,0.458c1.331,0.776,3.076,0.761,4.388-0.034
		c0.282-0.171,0.516-0.45,0.942-0.426c0.572,0.031,1.731,1.037-0.307,2.084c-1.119,0.575-1.169,0.413-2.047,0.686
		c0.151,0.304,1.757,1.811,2.214,2.275c0.759,0.773,0.112,1.65-0.665,1.562c-0.494-0.057-2.047-1.737-2.329-2.082
		c-0.633,0.322-1.75,1.974-2.363,2.075c-0.808,0.133-1.484-0.806-0.662-1.619L24.375,27.994L24.375,27.994z"/>
	<path fill-rule="evenodd" clip-rule="evenodd" fill="#FFFFFF" d="M28.417,21.24c-0.355-1.55-1.99-3.066-3.993-2.5
		c-4.366,1.233-2.601,7.358,1.492,6.435C27.457,24.827,28.872,23.225,28.417,21.24z M25.611,23.518
		c-2.07,0.554-2.955-2.545-0.832-3.139c0.988-0.276,1.779,0.412,1.981,1.167C27.019,22.514,26.34,23.323,25.611,23.518z"/>
</g>
</svg>
