<?xml version="1.0" encoding="utf-8"?>
<!-- Generator: Adobe Illustrator 15.1.0, SVG Export Plug-In . SVG Version: 6.00 Build 0)  -->
<!DOCTYPE svg PUBLIC "-//W3C//DTD SVG 1.1//EN" "http://www.w3.org/Graphics/SVG/1.1/DTD/svg11.dtd">
<svg version="1.1" id="Layer_5" xmlns="http://www.w3.org/2000/svg" xmlns:xlink="http://www.w3.org/1999/xlink" x="0px" y="0px"
	 width="109.598px" height="126.552px" viewBox="0 0 109.598 126.552" enable-background="new 0 0 109.598 126.552"
	 xml:space="preserve">
<g>
	<g>
		<path fill="#FFFFFF" d="M54.799,118.114L7.307,90.695V35.857L54.799,8.438l47.491,27.419v54.838L54.799,118.114z M9.307,89.541
			l45.492,26.264l45.491-26.264V37.011L54.799,10.748L9.307,37.012V89.541z"/>
	</g>
	<g>
		<path fill="#FFFFFF" d="M54.799,126.552l-0.25-0.144L0,94.914V31.639L54.799,0l0.25,0.144l54.548,31.494v63.276L54.799,126.552z
			 M1,94.336l53.799,31.062l53.798-31.062V32.215L54.799,1.154L1,32.216V94.336z"/>
	</g>
	<path fill-rule="evenodd" clip-rule="evenodd" fill="#FFFFFF" d="M53.182,71.027c-0.51-0.283-2.088-0.5-2.833-0.745
		c-8.258-2.702-5.314-6.7-2.949-6.459c0.848,0.086,1.614,0.804,2.269,1.186c3.445,2.01,7.963,1.97,11.36-0.089
		c0.729-0.442,1.335-1.165,2.438-1.104c1.481,0.081,4.482,2.684-0.795,5.396c-2.896,1.489-3.027,1.07-5.299,1.776
		c0.392,0.786,4.549,4.687,5.73,5.89c1.965,2.001,0.291,4.272-1.723,4.044c-1.279-0.146-5.3-4.497-6.029-5.389
		c-1.64,0.834-4.529,5.11-6.118,5.372c-2.093,0.345-3.842-2.086-1.713-4.19L53.182,71.027L53.182,71.027z"/>
	<path fill-rule="evenodd" clip-rule="evenodd" fill="#FFFFFF" d="M63.644,53.542c-0.919-4.012-5.151-7.937-10.337-6.473
		c-11.303,3.192-6.732,19.049,3.863,16.658C61.161,62.827,64.823,58.68,63.644,53.542z M56.381,59.439
		c-5.357,1.435-7.649-6.589-2.154-8.127c2.558-0.715,4.605,1.067,5.128,3.021C60.025,56.84,58.267,58.934,56.381,59.439z"/>
</g>
</svg>
