<?xml version="1.0" encoding="utf-8"?>
<!-- Generator: Adobe Illustrator 15.1.0, SVG Export Plug-In . SVG Version: 6.00 Build 0)  -->
<!DOCTYPE svg PUBLIC "-//W3C//DTD SVG 1.1//EN" "http://www.w3.org/Graphics/SVG/1.1/DTD/svg11.dtd">
<svg version="1.1" id="Layer_5" xmlns="http://www.w3.org/2000/svg" xmlns:xlink="http://www.w3.org/1999/xlink" x="0px" y="0px"
	 width="135px" height="135px" viewBox="0 0 135 135" enable-background="new 0 0 135 135" xml:space="preserve">
<g id="Your_Icon_1_">
	<path fill="#212121" d="M71.252,37.145c-0.107-0.109-0.217-0.207-0.322-0.297c-0.057-0.051-0.121-0.096-0.178-0.141
		c-0.033-0.025-0.059-0.045-0.092-0.066c-0.883-0.66-1.975-1.049-3.16-1.051c-1.186,0.002-2.275,0.391-3.158,1.047
		c-0.041,0.029-0.082,0.059-0.119,0.09c-0.049,0.037-0.1,0.074-0.146,0.117c-0.113,0.094-0.225,0.191-0.338,0.305L40.113,60.773
		c-2.078,2.076-2.078,5.445,0,7.523c2.076,2.074,5.443,2.074,7.52,0L62.18,53.75l0.002,40.344c0,2.939,2.383,5.318,5.318,5.318
		s5.318-2.379,5.318-5.318V53.75l14.545,14.547c2.078,2.074,5.445,2.074,7.525,0c2.078-2.078,2.076-5.445,0-7.523L71.262,37.152
		C71.26,37.148,71.258,37.145,71.252,37.145z"/>
	<path fill="#212121" d="M67.5,120.686c29.371,0,53.186-23.813,53.186-53.186c0-29.371-23.814-53.186-53.186-53.186
		c-29.375,0-53.186,23.814-53.186,53.186C14.314,96.873,38.125,120.686,67.5,120.686z M67.5,24.951
		c23.496,0,42.547,19.053,42.547,42.549c0,23.498-19.051,42.549-42.547,42.549S24.951,90.998,24.951,67.5
		C24.951,44.004,44.004,24.951,67.5,24.951z"/>
</g>
</svg>
