<?xml version="1.0" encoding="utf-8"?>
<!-- Generator: Adobe Illustrator 15.1.0, SVG Export Plug-In . SVG Version: 6.00 Build 0)  -->
<!DOCTYPE svg PUBLIC "-//W3C//DTD SVG 1.1//EN" "http://www.w3.org/Graphics/SVG/1.1/DTD/svg11.dtd">
<svg version="1.1" id="Layer_5" xmlns="http://www.w3.org/2000/svg" xmlns:xlink="http://www.w3.org/1999/xlink" x="0px" y="0px"
	 width="109.598px" height="126.552px" viewBox="0 0 109.598 126.552" enable-background="new 0 0 109.598 126.552"
	 xml:space="preserve">
<g>
	<g>
		<path fill="#FFFFFF" d="M54.799,118.114L7.308,90.695V35.857L54.799,8.438l47.491,27.419v54.838L54.799,118.114z M9.308,89.541
			l45.491,26.264l45.491-26.264V37.011L54.799,10.748L9.308,37.012V89.541z"/>
	</g>
	<g>
		<path fill="#FFFFFF" d="M54.799,126.552l-0.25-0.144L0,94.914V31.639L54.799,0l0.25,0.144l54.549,31.494v63.276L54.799,126.552z
			 M1,94.336l53.799,31.062l53.799-31.062V32.215L54.799,1.154L1,32.216V94.336z"/>
	</g>
	<g>
		<path fill-rule="evenodd" clip-rule="evenodd" fill="#FFFFFF" d="M71.485,65.265c-1.187-1.47-3.021-2.501-5.529-3.102
			c1.647-0.576,2.906-1.347,3.758-2.338c1.292-1.469,1.932-3.239,1.932-5.301c0-2.46-0.901-4.522-2.704-6.186
			c-1.802-1.665-4.383-2.501-7.745-2.501h-20.19v34.876h18.608c0.796,0,2.403-0.162,4.83-0.479c1.826-0.236,3.191-0.616,4.1-1.136
			c1.453-0.844,2.606-1.98,3.451-3.425c0.836-1.446,1.258-3.07,1.258-4.88C73.254,68.578,72.662,66.734,71.485,65.265z M51.871,52.9
			h4.773c1.633,0,2.786,0.285,3.443,0.86c0.658,0.569,0.991,1.365,0.991,2.379c0,1.097-0.333,1.932-0.991,2.517
			c-0.657,0.577-1.835,0.87-3.516,0.87h-4.7V52.9z M61.297,72.223c-0.764,0.659-2.07,0.991-3.93,0.991h-5.496v-7.063h5.472
			c1.892,0,3.215,0.316,3.97,0.94c0.756,0.626,1.129,1.453,1.129,2.485C62.441,70.689,62.06,71.565,61.297,72.223z"/>
	</g>
</g>
</svg>
