<?xml version="1.0" encoding="utf-8"?>
<!-- Generator: Adobe Illustrator 17.0.0, SVG Export Plug-In . SVG Version: 6.00 Build 0)  -->
<!DOCTYPE svg PUBLIC "-//W3C//DTD SVG 1.1//EN" "http://www.w3.org/Graphics/SVG/1.1/DTD/svg11.dtd">
<svg version="1.1" id="Layer_1" xmlns="http://www.w3.org/2000/svg" xmlns:xlink="http://www.w3.org/1999/xlink" x="0px" y="0px"
	 width="50px" height="50px" viewBox="0 0 50 50" enable-background="new 0 0 50 50" xml:space="preserve">
<g>
	<path fill="#FFFFFF" d="M25.624,46.351L6.987,35.591v-21.52l18.637-10.76l18.637,10.76v21.52L25.624,46.351z M7.772,35.138
		l17.852,10.307l17.852-10.307V14.524L25.624,4.218L7.772,14.524V35.138z"/>
</g>
<g>
	<path fill="#FFFFFF" d="M25.624,49.662l-0.098-0.057L4.119,37.246V12.416L25.624,0l0.098,0.057l21.406,12.359v24.831L25.624,49.662
		z M4.512,37.02l21.112,12.189L46.736,37.02V12.642L25.624,0.453L4.512,12.642V37.02z"/>
</g>
<g>
	<path fill-rule="evenodd" clip-rule="evenodd" fill="#FFFFFF" d="M32.172,25.612c-0.466-0.577-1.186-0.981-2.17-1.217
		c0.647-0.226,1.141-0.529,1.475-0.917c0.507-0.576,0.758-1.271,0.758-2.08c0-0.965-0.354-1.775-1.061-2.428
		c-0.707-0.653-1.72-0.981-3.039-0.981h-7.923v13.686h7.302c0.312,0,0.943-0.064,1.895-0.188c0.717-0.093,1.252-0.242,1.609-0.446
		c0.57-0.331,1.023-0.777,1.354-1.344c0.328-0.568,0.494-1.205,0.494-1.915C32.866,26.912,32.634,26.188,32.172,25.612z
		 M24.475,20.759h1.873c0.641,0,1.093,0.112,1.351,0.338c0.258,0.223,0.389,0.536,0.389,0.934c0,0.431-0.13,0.758-0.389,0.988
		c-0.258,0.226-0.72,0.341-1.38,0.341h-1.844V20.759z M28.174,28.342c-0.3,0.258-0.812,0.389-1.542,0.389h-2.157v-2.772h2.147
		c0.742,0,1.262,0.124,1.558,0.369c0.297,0.246,0.443,0.57,0.443,0.975C28.623,27.74,28.473,28.084,28.174,28.342z"/>
</g>
</svg>
