<?xml version="1.0" encoding="utf-8"?>
<!-- Generator: Adobe Illustrator 15.1.0, SVG Export Plug-In . SVG Version: 6.00 Build 0)  -->
<!DOCTYPE svg PUBLIC "-//W3C//DTD SVG 1.1//EN" "http://www.w3.org/Graphics/SVG/1.1/DTD/svg11.dtd">
<svg version="1.1" id="Layer_5" xmlns="http://www.w3.org/2000/svg" xmlns:xlink="http://www.w3.org/1999/xlink" x="0px" y="0px"
	 width="135px" height="135px" viewBox="0 0 135 135" enable-background="new 0 0 135 135" xml:space="preserve">
<g>
	<g>
		<polygon fill="#FFFFFF" points="40.541,88.63 60.015,92.482 60.015,70.691 40.541,70.691 		"/>
		<polygon fill="#FFFFFF" points="40.541,68.263 60.015,68.263 60.015,46.514 40.541,50.37 		"/>
		<polygon fill="#FFFFFF" points="63.061,68.263 94.46,68.263 94.46,39.692 63.061,45.912 		"/>
		<polygon fill="#FFFFFF" points="63.061,93.089 94.46,99.309 94.46,70.691 63.061,70.691 		"/>
	</g>
	<g>
		<path fill="#FFFFFF" d="M67.5,126.833c-32.716,0-59.333-26.616-59.333-59.333S34.784,8.167,67.5,8.167
			c32.717,0,59.334,26.616,59.334,59.333S100.216,126.833,67.5,126.833z M67.5,10.167c-31.613,0-57.333,25.72-57.333,57.333
			s25.719,57.333,57.333,57.333s57.334-25.72,57.334-57.333S99.113,10.167,67.5,10.167z"/>
	</g>
	<g>
		<path fill="#FFFFFF" d="M67.5,135C30.281,135,0,104.72,0,67.5S30.281,0,67.5,0C104.72,0,135,30.28,135,67.5S104.72,135,67.5,135z
			 M67.5,1C30.832,1,1,30.832,1,67.5S30.832,134,67.5,134c36.669,0,66.5-29.832,66.5-66.5S104.168,1,67.5,1z"/>
	</g>
</g>
</svg>
