<?xml version="1.0" encoding="utf-8"?>
<!-- Generator: Adobe Illustrator 17.0.0, SVG Export Plug-In . SVG Version: 6.00 Build 0)  -->
<!DOCTYPE svg PUBLIC "-//W3C//DTD SVG 1.1//EN" "http://www.w3.org/Graphics/SVG/1.1/DTD/svg11.dtd">
<svg version="1.1" id="Layer_1" xmlns="http://www.w3.org/2000/svg" xmlns:xlink="http://www.w3.org/1999/xlink" x="0px" y="0px"
	 width="50px" height="50px" viewBox="0 0 50 50" enable-background="new 0 0 50 50" xml:space="preserve">
<g>
	<g>
		<polygon fill="#FFFFFF" points="15.015,32.826 22.228,34.253 22.228,26.182 15.015,26.182 		"/>
		<polygon fill="#FFFFFF" points="15.015,25.282 22.228,25.282 22.228,17.227 15.015,18.656 		"/>
		<polygon fill="#FFFFFF" points="23.356,25.282 34.985,25.282 34.985,14.701 23.356,17.005 		"/>
		<polygon fill="#FFFFFF" points="23.356,34.477 34.985,36.781 34.985,26.182 23.356,26.182 		"/>
	</g>
	<g>
		<path fill="#FFFFFF" d="M25,46.975C12.883,46.975,3.025,37.117,3.025,25S12.883,3.025,25,3.025
			c12.117,0,21.975,9.858,21.975,21.975S37.117,46.975,25,46.975z M25,3.766C13.291,3.766,3.766,13.291,3.766,25
			S13.291,46.234,25,46.234S46.235,36.709,46.235,25S36.708,3.766,25,3.766z"/>
	</g>
	<g>
		<path fill="#FFFFFF" d="M25,50C11.215,50,0,38.785,0,25S11.215,0,25,0c13.785,0,25,11.215,25,25S38.785,50,25,50z M25,0.371
			C11.419,0.371,0.371,11.419,0.371,25S11.419,49.629,25,49.629c13.581,0,24.629-11.049,24.629-24.629S38.581,0.371,25,0.371z"/>
	</g>
</g>
</svg>
